<?xml version="1.0" encoding="UTF-8"?><svg id="Layer_2" xmlns="http://www.w3.org/2000/svg" viewBox="0 0 270.41 303.71"><defs><style>.cls-1{fill:#ff6a42;}.cls-1,.cls-2{stroke:#003a42;stroke-linecap:round;stroke-linejoin:round;stroke-width:5px;}.cls-2{fill:none;}</style></defs><g id="Layer_1-2"><path class="cls-2" d="M115.6,178.4h-53.36c-2.22,0-4.03-1.8-4.03-4.03v-72.82c0-2.22,1.8-4.03,4.03-4.03h97.32"/><path class="cls-2" d="M59.64,98.48l54.88,45.24c2.58,1.72,5.94,1.72,8.52,0l47.65-40.41"/><path class="cls-1" d="M157.56,51.2l-11.68,36.12c-.92,2.85.64,5.91,3.49,6.83l23.05,7.45c-1.77,11.08-4.62,23.68-9.1,37.53-4.48,13.85-9.55,25.74-14.6,35.75l-23.05-7.45c-2.85-.92-5.91.64-6.83,3.49l-11.68,36.12c-.92,2.85.64,5.91,3.49,6.83l9.29,3,23.01,7.44c9.11,2.95,19.07-.25,24.81-7.91,9.16-12.21,22.46-33.61,32.69-65.26,10.23-31.65,11.99-56.78,11.71-72.04-.17-9.57-6.37-17.99-15.49-20.94l-23.01-7.44-9.29-3c-2.85-.92-5.91.64-6.83,3.49Z"/><path class="cls-2" d="M167.33,263.99c-11.12,33.99-48.52,37.22-48.52,37.22,0,0,12.49-20.44,0-34.31h0C53.25,258.83,2.5,202.94,2.5,135.21,2.5,61.91,61.91,2.5,135.21,2.5s132.71,59.41,132.71,132.71c0,62.21-42.81,114.43-100.58,128.79h0Z"/></g></svg>