<?xml version="1.0" encoding="UTF-8"?><svg id="Layer_2" xmlns="http://www.w3.org/2000/svg" viewBox="0 0 218.67 286.46"><defs><style>.cls-1{fill:none;stroke:#003a42;stroke-linecap:round;stroke-linejoin:round;stroke-width:5px;}.cls-2{fill:#ff6a42;stroke-width:0px;}</style></defs><g id="Layer_1-2"><path class="cls-2" d="M216.17,211.39v-105.59h-78.31s9.12,14.73,9.12,52.8-9.12,52.8-9.12,52.8h78.31"/><path class="cls-1" d="M187.35,18.55h14.37c7.98,0,14.44,6.47,14.44,14.44v236.52c0,7.98-6.47,14.44-14.44,14.44H16.94c-7.98,0-14.44-6.47-14.44-14.44V32.99c0-7.98,6.47-14.44,14.44-14.44h14.3"/><line class="cls-1" x1="143.82" y1="18.55" x2="161.83" y2="18.55"/><line class="cls-1" x1="100.29" y1="18.55" x2="118.31" y2="18.55"/><line class="cls-1" x1="56.76" y1="18.55" x2="74.78" y2="18.55"/><rect class="cls-1" x="31.25" y="2.5" width="25.51" height="32.16" rx="12.76" ry="12.76"/><rect class="cls-1" x="74.78" y="2.5" width="25.51" height="32.16" rx="12.76" ry="12.76"/><rect class="cls-1" x="118.31" y="2.5" width="25.51" height="32.16" rx="12.76" ry="12.76"/><rect class="cls-1" x="161.83" y="2.5" width="25.51" height="32.16" rx="12.76" ry="12.76"/><path class="cls-1" d="M118.28,194.24c-2.82-9.39-4.55-21.91-4.55-35.65,0-29.16,7.76-52.8,17.33-52.8s17.33,23.64,17.33,52.8-7.76,52.8-17.33,52.8"/><line class="cls-1" x1="131.06" y1="105.79" x2="216.17" y2="105.79"/><path class="cls-1" d="M140.02,195.46h-8.35c-14.3,0-27.57,7.6-34.66,20.03-3.15,5.52-5.51,11.52-5.51,17.11,0,11.68,9.47,21.14,21.14,21.14s21.14-9.47,21.14-21.14c0-6.8-3.56-14.7-7.71-21.1l3.9-.11h86.19"/><circle class="cls-1" cx="63.98" cy="93.31" r="11.45"/><path class="cls-1" d="M100.6,85.81l-9.63-1.78c-.38-1.11-.83-2.19-1.34-3.24l5.55-8.07c.68-.99.56-2.32-.29-3.17l-7.15-7.15c-.85-.85-2.18-.97-3.17-.29l-8.07,5.55c-1.05-.51-2.13-.96-3.24-1.34l-1.78-9.63c-.22-1.18-1.25-2.03-2.44-2.03h-10.11c-1.2,0-2.23.86-2.44,2.03l-1.78,9.63c-1.11.38-2.19.83-3.24,1.34l-8.07-5.55c-.99-.68-2.32-.56-3.17.29l-7.15,7.15c-.85.85-.97,2.18-.29,3.17l5.55,8.07c-.51,1.05-.96,2.13-1.34,3.24l-9.63,1.78c-1.18.22-2.03,1.25-2.03,2.44v10.11c0,1.2.86,2.23,2.03,2.44l9.63,1.78c.38,1.11.83,2.19,1.34,3.24l-5.55,8.07c-.68.99-.56,2.32.29,3.17l7.15,7.15c.48.48,1.12.73,1.76.73.49,0,.98-.14,1.41-.44l8.07-5.55c1.05.51,2.13.96,3.24,1.34l1.78,9.63c.22,1.18,1.25,2.03,2.44,2.03h10.11c1.2,0,2.23-.86,2.44-2.03l1.78-9.63c1.11-.38,2.19-.83,3.24-1.34l8.07,5.55c.43.29.92.44,1.41.44.64,0,1.28-.25,1.76-.73l7.15-7.15c.85-.85.97-2.18.29-3.17l-5.55-8.07c.51-1.05.96-2.13,1.34-3.24l9.63-1.78c1.18-.22,2.03-1.25,2.03-2.44v-10.11c0-1.2-.86-2.23-2.03-2.44Z"/><polyline class="cls-1" points="46.44 167.16 58.13 178.86 81.53 155.46"/><polyline class="cls-1" points="46.44 203.8 58.13 215.5 81.53 192.11"/></g></svg>