<?xml version="1.0" encoding="UTF-8"?><svg id="Layer_2" xmlns="http://www.w3.org/2000/svg" viewBox="0 0 218.67 286.46"><defs><style>.cls-1{fill:none;stroke:#003a42;stroke-linecap:round;stroke-linejoin:round;stroke-width:5px;}.cls-2{fill:#ff6a42;}.cls-2,.cls-3{stroke-width:0px;}.cls-3{fill:#003a42;}</style></defs><g id="Layer_1-2"><path class="cls-2" d="M163.97,169v49.07c0,8.22-6.67,14.89-14.89,14.89h-77.43c-8.22,0-14.89-6.67-14.89-14.89v-49.07H2.5v100c0,8.29,6.72,15,15,15h183.66c8.29,0,15-6.72,15-15v-100h-52.19Z"/><path class="cls-1" d="M188.67,18.55h13.05c7.98,0,14.44,6.47,14.44,14.44v236.52c0,7.98-6.47,14.44-14.44,14.44H16.94c-7.98,0-14.44-6.47-14.44-14.44V32.99c0-7.98,6.47-14.44,14.44-14.44h13.25"/><line class="cls-1" x1="145.14" y1="18.55" x2="160.51" y2="18.55"/><line class="cls-1" x1="101.61" y1="18.55" x2="116.98" y2="18.55"/><line class="cls-1" x1="57.56" y1="18.55" x2="73.72" y2="18.55"/><rect class="cls-1" x="31.25" y="2.5" width="25.51" height="32.16" rx="12.76" ry="12.76"/><rect class="cls-1" x="74.78" y="2.5" width="25.51" height="32.16" rx="12.76" ry="12.76"/><rect class="cls-1" x="118.31" y="2.5" width="25.51" height="32.16" rx="12.76" ry="12.76"/><rect class="cls-1" x="161.83" y="2.5" width="25.51" height="32.16" rx="12.76" ry="12.76"/><path class="cls-1" d="M163.97,141.73v80.09c0,5.06-4.1,9.16-9.16,9.16h-88.89c-5.06,0-9.16-4.1-9.16-9.16v-84.09c0-5.06,4.1-9.16,9.16-9.16h62.51"/><path class="cls-1" d="M128.43,128.56h-50.66v-24.59c0-17.92,14.52-32.44,32.44-32.44h0c8.36,0,15.98,3.16,21.73,8.36"/><path class="cls-3" d="M120.67,171.65c0-5.69-4.61-10.3-10.3-10.3s-10.3,4.61-10.3,10.3c0,3.01,1.3,5.71,3.36,7.6v15.76c0,3.83,3.11,6.94,6.94,6.94h0c3.83,0,6.94-3.11,6.94-6.94v-15.76c2.06-1.88,3.36-4.59,3.36-7.6Z"/><circle class="cls-1" cx="156.93" cy="106.15" r="36.26"/><polyline class="cls-1" points="141.9 108.87 150.57 117.54 171.17 96.95"/></g></svg>