<?xml version="1.0" encoding="UTF-8"?>
<svg id="Layer_2" data-name="Layer 2" xmlns="http://www.w3.org/2000/svg" viewBox="0 0 1704.49 600">
  <defs>
    <style>
      .cls-1, .cls-2 {
        stroke: #003a42;
        stroke-miterlimit: 10;
        stroke-width: 1.1px;
      }

      .cls-1, .cls-3 {
        fill: #e8eeee;
      }

      .cls-2, .cls-4 {
        fill: none;
      }

      .cls-4, .cls-3 {
        stroke-width: 0px;
      }
    </style>
  </defs>
  <g id="LAYER_2" data-name="LAYER 2">
    <g>
      <g>
        <g>
          <g>
            <path class="cls-1" d="m780.61,416.8c1.38-8.59,5.98-18.33,10.04-18.33,4.85,0,10.46,13.86,10.46,23.1s-5.6,13.55-10.46,13.55c-2.35,0-4.88-1.01-6.86-3.11"/>
            <path class="cls-1" d="m780.93,421.51c.15-.57.24-1.17.24-1.79,0-3.83-3.1-6.93-6.93-6.93-.71,0-1.39.11-2.03.3-.74-1-1.92-1.65-3.26-1.65-1.96,0-3.59,1.39-3.98,3.23-.03,0-.06,0-.09,0-3.46,0-6.27,2.8-6.27,6.27,0,1.1.28,2.13.78,3.03-1.52,1.45-2.48,3.49-2.48,5.76,0,4.4,3.57,7.96,7.96,7.96.32,0,.63-.02.94-.06.19,2.08,1.91,3.71,4.03,3.71,1.64,0,3.04-.97,3.69-2.37.23.02.46.04.7.04,5.54,0,10.03-4.49,10.03-10.03,0-2.96-1.29-5.62-3.34-7.46Z"/>
            <g>
              <line class="cls-2" x1="770.11" y1="451.06" x2="770.11" y2="426.37"/>
              <polyline class="cls-2" points="772.57 429.85 770.11 434.71 767.75 431.55"/>
            </g>
          </g>
          <g>
            <line class="cls-2" x1="790.66" y1="447.54" x2="790.66" y2="416.8"/>
            <polyline class="cls-2" points="794.47 421.01 790.66 428.48 787.66 424.46"/>
          </g>
        </g>
        <g>
          <path class="cls-3" d="m1704.07,600H.76v-10.36c.09-.03.19-.06.28-.09,17.23-5.42,33.88-15.24,48.74-26.33,9.82-7.33,18.85-15.21,26.76-22.74,17.11-16.28,28.92-30.93,31.94-34.76,0,0,0-.02.02-.03.48-.61.73-.94.73-.94,23.89-29.17,56.94-47.96,92.96-57.65h.01c1.92-.52,3.85-1.01,5.78-1.47,4.2-1.01,8.43-1.9,12.69-2.67,32.15-5.8,65.78-4.85,96.81,2,36.58,7.56,69.33,24.38,102.32,40.69,2.18,1.08,4.37,2.16,6.56,3.24h0c24.96,12.25,50.21,23.83,77.51,30.55,19.48,5.16,39.75,6.03,59.91,3.64,24.14-2.86,48.12-10.41,70.39-20.86,20.05-9.54,38.35-17.79,55.28-24.81,21.99-9.12,41.68-16.16,59.91-21.26,7.12-1.99,14.02-3.69,20.74-5.09,24.34-5.09,46.45-6.41,68.73-4.31,5.41.5,10.83,1.21,16.3,2.11,4.61.76,9.26,1.66,13.96,2.7.78.16,1.56.33,2.34.5,5.51,1.2,10.94,2.61,16.3,4.19,5.51,1.63,10.93,3.44,16.3,5.4,5.46,1.99,10.86,4.14,16.22,6.39,17.27,7.29,34.05,15.75,50.9,24.08h.01c2.27,1.13,4.53,2.24,6.81,3.36,18.69,9.17,37.54,17.97,57.3,24.63,6.63,2.24,13.37,4.23,20.23,5.92,7.34,1.95,14.8,3.28,22.32,4.06,15.05,1.57,30.35.91,45.53-1.53,14.61-2.35,29.09-6.34,43.12-11.59,6.56-2.46,13.01-5.19,19.33-8.15,18.44-8.02,37.07-16.61,55.95-24.61,16.72-7.09,33.64-13.71,50.79-19.06,2.75-.86,5.52-1.69,8.29-2.48.34-.1.68-.2,1.03-.29.04-.02.08-.03.13-.04,10.91-3.08,21.91-5.58,33.02-7.31,2.63-.42,5.27-.78,7.92-1.1.17-.02.34-.04.51-.06,2.33-.28,4.66-.52,7-.72.06-.01.12-.02.17-.02,14.19-1.22,28.55-1.04,43.1.94,25.45,3.58,50.12,11.73,72.57,23.34,32.87,17.5,67.56,30.04,103.23,36.93.46.09.92.18,1.38.26,43.46,8.23,88.36,8.07,133.17-1.66v87.06Z"/>
          <g>
            <path class="cls-2" d="m.76,589.64c.09-.03.19-.06.28-.09,17.23-5.42,33.88-15.24,48.74-26.33,9.82-7.33,18.85-15.21,26.76-22.74,17.11-16.28,28.92-30.93,31.94-34.76,0-.01,0-.02.02-.03.48-.61.73-.94.73-.94,23.89-29.17,56.94-47.96,92.96-57.65h0c1.92-.52,3.85-1.01,5.78-1.47,4.2-1.01,8.43-1.9,12.69-2.67,32.15-5.8,65.78-4.85,96.81,2,36.58,7.56,69.33,24.38,102.32,40.69,2.18,1.08,4.37,2.16,6.56,3.24h.01c24.96,12.25,50.21,23.83,77.51,30.55,19.48,5.16,39.75,6.03,59.91,3.64,24.14-2.86,48.12-10.41,70.39-20.86,20.05-9.54,38.35-17.79,55.28-24.81,21.99-9.12,41.68-16.16,59.91-21.26,7.12-1.99,14.02-3.69,20.74-5.09,24.34-5.09,46.45-6.41,68.73-4.31,5.41.5,10.83,1.21,16.3,2.11,4.61.76,9.26,1.66,13.96,2.7.78.16,1.56.33,2.34.5,5.51,1.2,10.94,2.61,16.3,4.19,5.51,1.63,10.93,3.44,16.3,5.4,5.46,1.99,10.86,4.14,16.22,6.39,17.27,7.29,34.05,15.75,50.9,24.08h.01c2.27,1.13,4.53,2.24,6.81,3.36,18.69,9.17,37.54,17.97,57.3,24.63,6.63,2.24,13.37,4.23,20.23,5.92,7.34,1.95,14.8,3.28,22.32,4.06,15.05,1.57,30.35.91,45.53-1.53,14.61-2.35,29.09-6.34,43.12-11.59,6.56-2.46,13.01-5.19,19.33-8.15,18.44-8.02,37.07-16.61,55.95-24.61,16.72-7.09,33.64-13.71,50.79-19.06,2.75-.86,5.52-1.69,8.29-2.48.34-.1.68-.2,1.03-.29.04-.02.08-.03.13-.04,10.91-3.08,21.91-5.58,33.02-7.31,2.63-.42,5.27-.78,7.92-1.1l.51-.06c2.33-.28,4.66-.52,7-.72.06-.01.12-.02.17-.02,14.19-1.22,28.55-1.04,43.1.94,25.45,3.58,50.12,11.73,72.57,23.34,32.87,17.5,67.56,30.04,103.23,36.93.46.09.92.18,1.38.26,43.46,8.23,88.36,8.07,133.17-1.66.01,0,.03,0,.04,0,.08-.01.17-.03.25-.05"/>
            <g>
              <g>
                <path class="cls-1" d="m550.06,476.41c1.89-11.75,8.17-25.06,13.73-25.06,6.64,0,14.3,18.96,14.3,31.6s-7.66,18.53-14.3,18.53c-3.22,0-6.67-1.38-9.38-4.25"/>
                <path class="cls-1" d="m550.49,482.86c.21-.78.33-1.6.33-2.45,0-5.24-4.25-9.48-9.48-9.48-.97,0-1.9.15-2.77.41-1.01-1.37-2.63-2.26-4.46-2.26-2.68,0-4.92,1.9-5.44,4.42-.04,0-.08,0-.12,0-4.73,0-8.57,3.84-8.57,8.57,0,1.5.39,2.91,1.07,4.14-2.08,1.98-3.39,4.78-3.39,7.88,0,6.02,4.88,10.89,10.89,10.89.44,0,.86-.03,1.28-.08.25,2.84,2.61,5.07,5.52,5.07,2.24,0,4.16-1.33,5.04-3.24.32.02.63.05.95.05,7.58,0,13.72-6.14,13.72-13.72,0-4.05-1.77-7.68-4.56-10.2Z"/>
                <g>
                  <line class="cls-2" x1="535.68" y1="524.19" x2="535.68" y2="489.49"/>
                  <polyline class="cls-2" points="539.05 494.26 535.68 500.91 532.46 496.58"/>
                </g>
              </g>
              <g>
                <line class="cls-2" x1="563.79" y1="523.08" x2="563.79" y2="476.41"/>
                <polyline class="cls-2" points="569.01 482.17 563.79 492.38 559.69 486.88"/>
              </g>
            </g>
          </g>
        </g>
      </g>
      <g>
        <g>
          <path class="cls-1" d="m550.06,476.41c1.89-11.75,8.17-25.06,13.73-25.06,6.64,0,14.3,18.96,14.3,31.6s-7.66,18.53-14.3,18.53c-3.22,0-6.67-1.38-9.38-4.25"/>
          <path class="cls-1" d="m550.49,482.86c.21-.78.33-1.6.33-2.45,0-5.24-4.25-9.48-9.48-9.48-.97,0-1.9.15-2.77.41-1.01-1.37-2.63-2.26-4.46-2.26-2.68,0-4.92,1.9-5.44,4.42-.04,0-.08,0-.12,0-4.73,0-8.57,3.84-8.57,8.57,0,1.5.39,2.91,1.07,4.14-2.08,1.98-3.39,4.78-3.39,7.88,0,6.02,4.88,10.89,10.89,10.89.44,0,.86-.03,1.28-.08.25,2.84,2.61,5.07,5.52,5.07,2.24,0,4.16-1.33,5.04-3.24.32.02.63.05.95.05,7.58,0,13.72-6.14,13.72-13.72,0-4.05-1.77-7.68-4.56-10.2Z"/>
          <g>
            <line class="cls-2" x1="535.68" y1="524.19" x2="535.68" y2="489.49"/>
            <polyline class="cls-2" points="539.05 494.26 535.68 500.91 532.46 496.58"/>
          </g>
        </g>
        <g>
          <line class="cls-2" x1="563.79" y1="523.08" x2="563.79" y2="476.41"/>
          <polyline class="cls-2" points="569.01 482.17 563.79 492.38 559.69 486.88"/>
        </g>
      </g>
    </g>
  </g>
  <g id="Layer_9" data-name="Layer 9">
    <rect class="cls-4" width="1704.07" height="600"/>
  </g>
</svg>