<?xml version="1.0" encoding="UTF-8"?>
<svg id="Layer_2" data-name="Layer 2" xmlns="http://www.w3.org/2000/svg" viewBox="0 0 1704.07 600">
  <defs>
    <style>
      .cls-1 {
        fill: #e8eeee;
        stroke: #003a42;
        stroke-miterlimit: 10;
        stroke-width: 1.1px;
      }

      .cls-2 {
        fill: none;
        stroke-width: 0px;
      }
    </style>
  </defs>
  <g id="BG_Clouds" data-name="BG Clouds">
    <g>
      <path class="cls-1" d="m1154.83,336.42c-3.85,0-7.48.97-10.65,2.68.21-1.23.34-2.49.34-3.78,0-12.42-10.07-22.49-22.49-22.49-10.6,0-19.46,7.34-21.84,17.21-.55-.05-1.11-.08-1.67-.08-9.61,0-17.48,7.4-18.25,16.81-.02.19.14.36.33.36h92.77c.26,0,.42-.29.28-.5-4.02-6.13-10.93-10.19-18.81-10.19Z"/>
      <path class="cls-1" d="m536.2,322.54c-3.85,0-7.48.97-10.65,2.68.21-1.23.34-2.49.34-3.78,0-12.42-10.07-22.49-22.49-22.49-10.6,0-19.46,7.34-21.84,17.21-.55-.05-1.11-.08-1.67-.08-9.61,0-17.48,7.4-18.25,16.81-.02.19.14.36.33.36h92.77c.26,0,.42-.29.28-.5-4.02-6.13-10.93-10.19-18.81-10.19Z"/>
      <path class="cls-1" d="m1025.35,303.54c0-7.7,6.24-13.94,13.94-13.94,6.48,0,11.91,4.43,13.47,10.42.6-.11,1.22-.17,1.85-.17,5.27,0,9.62,3.93,10.29,9.01h-38.49c-.68-1.63-1.06-3.43-1.06-5.32Z"/>
    </g>
  </g>
  <g id="Layer_9" data-name="Layer 9">
    <rect class="cls-2" width="1704.07" height="600"/>
  </g>
</svg>