<?xml version="1.0" encoding="UTF-8"?>
<svg id="Layer_2" data-name="Layer 2" xmlns="http://www.w3.org/2000/svg" viewBox="0 0 1704.36 600">
  <defs>
    <style>
      .cls-1, .cls-2 {
        stroke: #003a42;
        stroke-miterlimit: 10;
        stroke-width: 1.1px;
      }

      .cls-1, .cls-3 {
        fill: #e8eeee;
      }

      .cls-2, .cls-4 {
        fill: none;
      }

      .cls-4, .cls-3 {
        stroke-width: 0px;
      }
    </style>
  </defs>
  <g id="LAYER_5" data-name="LAYER 5">
    <g>
      <g>
        <g>
          <path class="cls-1" d="m730.23,308.29h-6.9c-.76,0-1.37-.61-1.37-1.37v-.5c0-1.51.83-2.9,2.16-3.61h0c2.95-1.58,6.25-2.4,9.6-2.4h2.07s-1.94,5.79-1.94,5.79l-3.63,2.1Z"/>
          <path class="cls-1" d="m730.61,313.87s.99-2.4,1.58-3.35,3.05-2.06,3.05-2.06l.39-.17,2.62,68.03-10.03-.68,2.38-61.77"/>
          <path class="cls-1" d="m740.29,300.5v-38.9c0-1.26-1.98-1.52-2.37-.31-1.99,6.04-4.5,15.13-4.5,22.48,0,9.59,4.23,8.93,4.23,12.79s0,3.45,0,3.45"/>
          <path class="cls-1" d="m733.86,306.2l-32.1,18.53c-1.09.63-.33,2.47.92,2.21,6.22-1.3,15.35-3.67,21.72-7.34,8.3-4.79,5.62-8.12,8.96-10.05l2.45-1.41-1.94-1.94Z"/>
          <path class="cls-1" d="m742.4,307.26l22.43,16.76c.53.39,1.18-.89.79-1.54-2.03-3.44-5.52-8.78-9.39-12.07-5.81-4.95-7.16-1.21-9.87-3.35l-1.9-1.35"/>
          <path class="cls-1" d="m745.08,304.29c0,2.37-5.01,4.29-7.38,4.29s-4.29-1.92-4.29-4.29,1.92-4.29,4.29-4.29,7.38,1.92,7.38,4.29Z"/>
          <path class="cls-2" d="m740.29,300.5v-38.9c0-1.26-1.98-1.52-2.37-.31-1.99,6.04-4.5,15.13-4.5,22.48,0,9.59,4.23,8.93,4.23,12.79s0,3.45,0,3.45"/>
        </g>
        <g>
          <path class="cls-3" d="m421.87,452.17c-22.87-1.62-35.67-7.42-35.67-7.42h-.84v-40.63h-3.47c-.63,0-1.19-.38-1.42-.96-.23-.58-.08-1.24.38-1.67l23.21-21.74h38.47l8.62,8.08v-5.93h7.45v12.91l1.84,1.72,1.95-1.83h30.65l6.79,6.36v-4.66h6.03v10.3l2.28,2.13.84-.79h23.67l5.15,4.83v-3.51h4.76v7.97l3.13,2.93-.49.52-1.74.55-.76.82-20.16,10.05-1.86,1.04-13.39,5.53-29.1,8.36h-1.01s-15.16,3.11-15.16,3.11h-1.04s-16.25,3.54-39.12,1.92Z"/>
          <path class="cls-3" d="m1704.36,402.23v110.65c-.08.02-.17.04-.25.05-.01.01-.03.01-.04.01v87.06H1.04v-167.02c23.21-28.34,55.05-46.88,89.88-56.8.87-.25,1.74-.49,2.62-.73,2.53-.69,5.08-1.33,7.64-1.92,35.48-8.29,73.42-8,108.1-.34,38.25,7.9,72.3,25.92,106.82,42.91,10.47,5.15,20.98,10.21,31.67,14.87,5.9,2.56,11.85,5,17.87,7.27,6.51,2.45,13.11,4.69,19.82,6.65,1.45.43,2.9.85,4.36,1.24.02.01.04.01.05.02,1.93.53,3.87,1.03,5.82,1.51,9.02,2.39,18.21,3.86,27.48,4.51,3.81.27,7.63.4,11.46.4,1.7,0,3.41-.03,5.12-.08.46-.01.91-.03,1.37-.05,2.93-.11,5.87-.29,8.81-.56,3.83-.33,7.65-.79,11.47-1.36,5.42-.81,10.82-1.84,16.19-3.09,2.16-.5,4.31-1.04,6.46-1.61.86-.22,1.72-.46,2.59-.7.96-.26,1.91-.53,2.86-.81.09-.03.19-.06.28-.08,4.03-1.18,8.03-2.47,12-3.87,8.24-2.88,16.33-6.21,24.21-9.91,2.13-1.1,4.27-2.19,6.41-3.26,3.45-1.74,6.91-3.44,10.38-5.11.09-.04.18-.09.27-.13,12.42-5.98,24.95-11.53,37.49-16.57,4.12-1.65,8.25-3.25,12.37-4.79,1.86-.7,3.72-1.38,5.58-2.05,12.41-4.48,24.79-8.4,37.08-11.7,4.1-1.1,8.19-2.12,12.27-3.08,4.17-.98,8.32-1.88,12.46-2.7.09-.02.19-.04.28-.06l13.2-2.33.29-.05c18.56-2.88,36.71-4.04,54.17-3.15,3.36.17,6.7.42,10.01.75,7.71.75,15.27,1.93,22.66,3.56,17.25,3.57,33.65,9.19,49.62,15.85,10.16,4.23,20.15,8.89,30.07,13.7,4.86,2.35,9.7,4.74,14.54,7.14,5.43,2.69,10.85,5.39,16.3,8.05,5.41,2.65,10.84,5.26,16.3,7.79,5.4,2.51,10.82,4.93,16.3,7.24,5.38,2.27,10.81,4.42,16.3,6.42,5.37,1.96,10.79,3.77,16.3,5.39,3.53,1.05,7.09,2.02,10.68,2.9,1.87.49,3.74.95,5.62,1.36,5.39,1.2,10.83,2.08,16.3,2.66,5.4.58,10.84.87,16.3.88,5.42.03,10.86-.21,16.3-.71,5.44-.47,10.88-1.2,16.3-2.16,2.97-.52,5.93-1.11,8.88-1.76.96-.21,1.93-.43,2.89-.66,1.51-.36,3.02-.74,4.53-1.13,1.37-.35,2.74-.72,4.11-1.1,4.09-1.14,8.16-2.39,12.19-3.76,5.5-1.86,10.94-3.92,16.3-6.16,3.56-1.48,7.09-3.04,10.57-4.68,1.91-.83,3.81-1.66,5.72-2.5,5.42-2.38,10.85-4.8,16.3-7.23,5.41-2.41,10.85-4.84,16.3-7.24,5.46-2.4,10.94-4.79,16.43-7.12,4.21-1.79,8.43-3.55,12.66-5.28,10.7-4.34,21.48-8.43,32.35-12.04,7.51-2.5,15.07-4.78,22.68-6.76.29-.08.57-.15.86-.22.77-.2,1.54-.4,2.32-.58,2.12-.53,4.25-1.03,6.39-1.52,20.41-4.61,41.16-6.91,62.31-5.6,2.47.15,4.95.36,7.44.61.17.02.35.04.52.06,1.3.14,2.62.28,3.93.46.22.02.45.05.67.08,2.44.33,4.87.7,7.29,1.12,23.24,3.96,45.72,11.7,66.32,22.36.24.13.47.25.71.37,45.59,24.15,94.81,38.76,145.22,42.03,21.46,1.39,42.95.45,64.11-2.68,3.89-.58,7.77-1.23,11.63-1.95.67-.13,1.35-.25,2.02-.39,1.8-.35,3.59-.71,5.39-1.09,1.36-.29,2.72-.59,4.08-.89,1.04-.24,2.09-.47,3.13-.72,2.29-.54,4.59-1.1,6.87-1.69.28-.07.56-.15.84-.22,2.06-.54,4.11-1.1,6.15-1.69,2.31-.66,4.61-1.34,6.9-2.05,5.62-1.72,11.19-3.61,16.72-5.65l72.2-26.67.29-.11Z"/>
          <path class="cls-2" d="m.76,433.05c48.77-59.55,135.64-75.83,208.25-59.79,66.66,13.77,120.59,58.29,186.41,74.48,42.79,11.34,89.42,1.97,130.3-17.22,44.39-22.88,90.45-40.74,134.6-49.44l13.49-2.38c30.46-4.73,59.81-4.81,86.84,1.16,66.66,13.77,120.59,58.29,186.41,74.48,42.79,11.34,89.42,1.97,130.3-17.22,64.16-27.9,130.7-62.75,201.75-55.48,1.71.17,3.41.37,5.12.6,25.82,3.5,50.85,11.71,73.61,23.48,45.78,24.37,95.25,39.11,145.93,42.4,43.45,2.82,86.99-3.95,127.84-19.03l72.48-26.78"/>
        </g>
      </g>
      <g>
        <g>
          <g>
            <rect class="cls-2" x="434.63" y="407.26" width="15.3" height="15.3"/>
            <line class="cls-2" x1="442.28" y1="407.26" x2="442.28" y2="422.56"/>
            <line class="cls-2" x1="434.63" y1="414.91" x2="449.93" y2="414.91"/>
          </g>
          <polyline class="cls-2" points="423.17 403.9 442.28 386 461.4 403.91"/>
          <path class="cls-2" d="m461.4,450.56v-46.68h3.15c1.16,0,1.72-1.42.87-2.21l-7.21-6.75v-12.77h-6.95v6.26l-8.97-8.4h-38.27l-23.14,21.67c-.84.79-.28,2.21.87,2.21h41.42v46.63"/>
          <polyline class="cls-2" points="385.46 445.06 385.46 403.91 423.17 403.91 423.17 452.27"/>
          <g>
            <g>
              <rect class="cls-2" x="407.51" y="407.26" width="7.65" height="15.3"/>
              <line class="cls-2" x1="407.51" y1="414.91" x2="415.16" y2="414.91"/>
            </g>
            <g>
              <rect class="cls-2" x="407.51" y="428.93" width="7.65" height="15.3"/>
              <line class="cls-2" x1="407.51" y1="436.58" x2="415.16" y2="436.58"/>
            </g>
            <g>
              <rect class="cls-2" x="393.48" y="407.26" width="7.65" height="15.3"/>
              <line class="cls-2" x1="393.48" y1="414.91" x2="401.13" y2="414.91"/>
            </g>
            <g>
              <rect class="cls-2" x="393.48" y="428.93" width="7.65" height="15.3"/>
              <line class="cls-2" x1="393.48" y1="436.58" x2="401.13" y2="436.58"/>
            </g>
          </g>
          <g>
            <polyline class="cls-2" points="434.63 452.65 434.63 431.5 449.93 431.5 449.93 451.94"/>
            <line class="cls-2" x1="446.29" y1="440.88" x2="446.29" y2="443.99"/>
          </g>
        </g>
        <g>
          <g>
            <rect class="cls-2" x="486.71" y="416.65" width="12.17" height="12.17"/>
            <line class="cls-2" x1="492.8" y1="416.65" x2="492.8" y2="428.82"/>
            <line class="cls-2" x1="486.71" y1="422.73" x2="498.89" y2="422.73"/>
          </g>
          <polyline class="cls-2" points="477.59 413.97 492.8 399.73 508.01 413.98"/>
          <path class="cls-2" d="m508.01,438.07v-24.12h2.51c.92,0,1.37-1.13.69-1.76l-5.74-5.37v-10.16h-5.53v4.98l-7.14-6.69h-30.45l-1.82,1.71"/>
          <polyline class="cls-2" points="461.22 413.95 477.59 413.95 477.59 447.44"/>
          <polyline class="cls-2" points="461.22 413.98 477.59 413.98 477.59 447.44"/>
          <g>
            <g>
              <rect class="cls-2" x="465.13" y="416.65" width="6.09" height="12.17"/>
              <line class="cls-2" x1="465.13" y1="422.73" x2="471.22" y2="422.73"/>
            </g>
            <g>
              <rect class="cls-2" x="465.13" y="433.88" width="6.09" height="12.17"/>
              <line class="cls-2" x1="465.13" y1="439.97" x2="471.22" y2="439.97"/>
            </g>
          </g>
          <polyline class="cls-2" points="486.71 445.1 486.71 435.93 498.89 435.93 498.89 441.34"/>
        </g>
        <g>
          <g>
            <polyline class="cls-2" points="527.71 429.38 527.71 425.02 536.6 425.02"/>
            <line class="cls-2" x1="532.4" y1="425.02" x2="532.4" y2="427.19"/>
          </g>
          <polyline class="cls-2" points="520.68 422.96 532.4 411.99 543.11 422.01"/>
          <polyline class="cls-2" points="545.6 420.67 542.17 417.45 542.17 409.62 537.91 409.62 537.91 413.46 532.4 408.31 508.94 408.31 508.08 409.11"/>
          <polyline class="cls-2" points="508.01 422.95 520.68 422.95 520.68 432.58"/>
          <polyline class="cls-2" points="508.01 422.97 520.68 422.97 520.68 432.58"/>
          <g>
            <polyline class="cls-2" points="514.92 435.3 511.08 435.3 511.08 425.91 515.77 425.91 515.77 434.89"/>
            <line class="cls-2" x1="511.08" y1="430.6" x2="515.77" y2="430.6"/>
          </g>
        </g>
        <g>
          <g>
            <path class="cls-1" d="m356.91,400.76c1.2-7.47,5.19-15.93,8.73-15.93,4.22,0,9.09,12.05,9.09,20.08s-4.87,11.78-9.09,11.78c-2.04,0-4.24-.88-5.96-2.7"/>
            <path class="cls-1" d="m357.18,404.86c.13-.5.21-1.02.21-1.56,0-3.33-2.7-6.03-6.03-6.03-.61,0-1.21.09-1.76.26-.64-.87-1.67-1.44-2.83-1.44-1.7,0-3.12,1.21-3.46,2.81-.03,0-.05,0-.08,0-3.01,0-5.45,2.44-5.45,5.45,0,.95.25,1.85.68,2.63-1.33,1.26-2.16,3.04-2.16,5.01,0,3.82,3.1,6.92,6.92,6.92.28,0,.55-.02.82-.05.16,1.8,1.66,3.22,3.51,3.22,1.42,0,2.64-.85,3.2-2.06.2.01.4.03.61.03,4.82,0,8.72-3.9,8.72-8.72,0-2.58-1.12-4.89-2.9-6.48Z"/>
            <g>
              <line class="cls-2" x1="347.77" y1="431.16" x2="347.77" y2="409.08"/>
              <polyline class="cls-2" points="349.91 412.11 347.77 416.33 345.72 413.58"/>
            </g>
          </g>
          <g>
            <line class="cls-2" x1="365.64" y1="438.41" x2="365.64" y2="400.76"/>
            <polyline class="cls-2" points="368.96 404.42 365.64 410.91 363.03 407.42"/>
          </g>
        </g>
      </g>
    </g>
  </g>
  <g id="Layer_9" data-name="Layer 9">
    <rect class="cls-4" width="1704.07" height="600"/>
  </g>
</svg>