<?xml version="1.0" encoding="UTF-8"?>
<svg id="Layer_2" data-name="Layer 2" xmlns="http://www.w3.org/2000/svg" viewBox="0 0 1704.07 600.52">
  <defs>
    <style>
      .cls-1, .cls-2 {
        stroke: #003a42;
        stroke-miterlimit: 10;
        stroke-width: 1.1px;
      }

      .cls-1, .cls-3 {
        fill: #e8eeee;
      }

      .cls-2, .cls-4 {
        fill: none;
      }

      .cls-4, .cls-3 {
        stroke-width: 0px;
      }
    </style>
  </defs>
  <g id="LAYER_3" data-name="LAYER 3">
    <g>
      <g>
        <path class="cls-3" d="m1467.79,600H.76v-38.2c.09,0,.19.01.28.01,16.75.81,32.98,1.27,48.74,1.41,114.93,1.04,204.24-14.9,277.92-37.46h.01c36.27-11.09,68.76-23.8,98.65-36.87h0c56.87-24.88,115.5-49.92,177.79-41.42,25.45,3.58,50.12,11.73,72.58,23.35,4.42,2.35,8.14,4.3,12.72,6.59,0,0,5.59,3.34,15.1,8.29,27.35,14.26,87.14,41.88,139.85,41.88,7.9,0,15.79-.28,23.94-.99,29.14-2.53,61.58-10.57,109.63-31.11,19.11-8.34,38.39-16.77,57.94-23.91,4.92-1.81,9.86-3.53,14.82-5.14,5.41-1.77,10.84-3.41,16.3-4.9,4.58-1.25,9.17-2.4,13.79-3.42v-10.65h10.47v8.54c2.77-.5,5.55-.95,8.33-1.36,5.41-.78,10.84-1.38,16.3-1.76,5.41-.38,10.84-.56,16.3-.5,5.41.04,10.84.32,16.3.85,2.41.23,4.83.51,7.25.84,8.39,1.18,16.7,2.86,24.87,4.99,16.61,4.34,32.66,10.57,47.71,18.35,4.43,2.36,8.92,4.57,13.39,6.8h.01c4.31,2.16,8.88,4.57,13.7,7.19,49.66,27.08,125.6,77.33,212.33,108.6Z"/>
        <path class="cls-2" d="m1467.79,600c-86.73-31.27-162.67-81.52-212.33-108.6-4.82-2.62-9.39-5.03-13.7-7.19h-.01c-4.47-2.23-8.96-4.44-13.39-6.8-15.05-7.78-31.1-14.01-47.71-18.35-8.17-2.13-16.48-3.81-24.87-4.99-2.42-.33-4.84-.61-7.25-.84-5.46-.53-10.89-.81-16.3-.85-5.46-.06-10.89.12-16.3.5-5.46.38-10.89.98-16.3,1.76-2.78.41-5.56.86-8.33,1.36"/>
        <g>
          <g>
            <line class="cls-2" x1="1035.28" y1="531.86" x2="1035.28" y2="492.74"/>
            <line class="cls-2" x1="1166.48" y1="492.95" x2="1166.48" y2="531.86"/>
            <polygon class="cls-2" points="1100.86 492.94 1068.59 474.62 1034.17 493.54 1034.17 488.28 1068.62 469.35 1100.9 487.66 1134.08 469.35 1167.61 488.3 1167.61 493.59 1134.06 474.62 1100.86 492.94"/>
            <polyline class="cls-2" points="1080.83 476.2 1080.83 447.46 1091.3 447.46 1091.3 482.22"/>
            <rect class="cls-2" x="1048.07" y="496.48" width="9.96" height="9.96"/>
            <rect class="cls-2" x="1062.95" y="496.48" width="9.96" height="9.96"/>
            <rect class="cls-2" x="1077.83" y="496.48" width="9.96" height="9.96"/>
            <rect class="cls-2" x="1113.4" y="496.48" width="9.96" height="9.96"/>
            <rect class="cls-2" x="1128.28" y="496.48" width="9.96" height="9.96"/>
            <rect class="cls-2" x="1143.16" y="496.48" width="9.96" height="9.96"/>
            <rect class="cls-2" x="1077.83" y="514.43" width="45.52" height="17.43"/>
          </g>
          <line class="cls-2" x1="1080.83" y1="465.75" x2="1090.86" y2="465.75"/>
          <line class="cls-2" x1="1080.83" y1="468.29" x2="1091.3" y2="468.29"/>
        </g>
        <g>
          <path class="cls-1" d="m1192.25,427.35c.16-.61.26-1.25.26-1.92,0-4.1-3.33-7.43-7.43-7.43-.76,0-1.48.11-2.17.32-.79-1.07-2.06-1.77-3.49-1.77-2.1,0-3.85,1.48-4.26,3.46-.03,0-.06,0-.09,0-3.71,0-6.71,3-6.71,6.71,0,1.18.3,2.28.84,3.24-1.63,1.55-2.66,3.74-2.66,6.17,0,4.71,3.82,8.53,8.53,8.53.34,0,.68-.03,1.01-.06.2,2.22,2.05,3.97,4.32,3.97,1.75,0,3.26-1.04,3.95-2.54.25.02.5.04.75.04,5.93,0,10.74-4.81,10.74-10.74,0-3.18-1.39-6.02-3.57-7.99Z"/>
          <g>
            <line class="cls-2" x1="1180.65" y1="459.06" x2="1180.65" y2="432.55"/>
            <polyline class="cls-2" points="1183.29 436.28 1180.65 441.49 1178.12 438.1"/>
          </g>
        </g>
      </g>
      <path class="cls-2" d="m1080.83,458.11c-35.2,7.81-69.28,22.73-102.85,37.38-61.49,26.28-97.42,32.09-133.58,32.09-71.04,0-154.94-50.16-154.94-50.16-4.58-2.29-8.3-4.24-12.73-6.6-22.45-11.62-47.12-19.77-72.58-23.34-62.28-8.5-120.93,16.53-177.8,41.41-98.97,43.3-226.42,82.56-425.6,72.91"/>
    </g>
  </g>
  <g id="Layer_9" data-name="Layer 9">
    <rect class="cls-4" width="1704.07" height="600"/>
  </g>
</svg>