<?xml version="1.0" encoding="UTF-8"?>
<svg id="Layer_2" data-name="Layer 2" xmlns="http://www.w3.org/2000/svg" viewBox="0 0 1704.47 600">
  <defs>
    <style>
      .cls-1 {
        stroke: #003a42;
        stroke-miterlimit: 10;
        stroke-width: 1.1px;
      }

      .cls-1, .cls-2 {
        fill: none;
      }

      .cls-2, .cls-3 {
        stroke-width: 0px;
      }

      .cls-3 {
        fill: #e8eeee;
      }
    </style>
  </defs>
  <g id="Foreground">
    <g>
      <path class="cls-3" d="m1704.07,519.73v80.27H.76v-55.9c.09-.04.19-.08.28-.12,2.62-1.09,5.24-2.17,7.84-3.22,40.46-16.42,80.95-29.34,99.6-35.04,1.08-.33,2.09-.64,3.02-.92.91-.27,1.39-.41,1.39-.41l.44-.14c.11-.03.22-.06.33-.09,3.52-1.06,5.46-1.62,5.46-1.62,1.81-.38,3.61-.74,5.42-1.07.54-.11,1.08-.21,1.62-.31,1.13-.21,2.26-.41,3.39-.61,1.63-.29,3.27-.56,4.9-.82.97-.15,1.94-.3,2.91-.45.19-.03.38-.06.57-.09,1.14-.16,2.27-.33,3.4-.48,1.66-.23,3.33-.45,4.99-.65,2.13-.27,4.26-.51,6.39-.73.49-.05.97-.1,1.46-.14,1.01-.11,2.02-.2,3.03-.29,2.4-.21,4.79-.4,7.19-.56.9-.07,1.8-.12,2.7-.17,1.04-.07,2.09-.12,3.13-.17,1.17-.07,2.34-.12,3.52-.16.21-.01.41-.02.6-.03,1.08-.04,2.16-.07,3.24-.1,1.66-.04,3.31-.08,4.96-.1,1.4-.02,2.81-.03,4.21-.03,16.38,0,32.67,1.21,48.78,3.56,1.79.26,3.58.54,5.37.83,1.78.29,3.57.59,5.35.91,6.24,1.12,12.45,2.4,18.62,3.85,1.55.37,3.09.74,4.63,1.13.4.1.79.2,1.19.3,1.4.35,2.8.71,4.19,1.08,1.06.29,2.11.57,3.17.86,1.75.49,3.5.98,5.24,1.49,2.9.85,5.78,1.74,8.66,2.66,1.46.46,2.91.94,4.36,1.42,1.72.57,3.45,1.16,5.17,1.77,1.72.6,3.44,1.22,5.15,1.84.85.32,1.71.64,2.57.96,2.56.96,5.12,1.96,7.67,2.98,3.63,1.46,7.24,2.97,10.83,4.54.61.27,1.22.54,1.83.81,8.39,3.72,16.68,7.77,24.86,12.12,44.81,23.83,99.23,31.06,148.84,21.12,47-9.32,89.41-34.83,132.72-54.21,22.89-10.73,42.98-17.28,68.61-19.9,8.65-.88,17.93-1.32,28.16-1.32,38.17,0,97.28,24.31,135.63,42.21,22.35,10.44,37.66,18.69,37.66,18.69,44.82,23.83,99.24,31.07,148.85,21.12,39.35-7.8,75.48-26.95,111.62-44.35,7.03-3.38,14.05-6.7,21.1-9.85,21.71-10.18,44.54-18.13,67.88-20.8,9.55-1.09,19.19-1.3,28.88-.42,52.99,5.14,100.1,31.28,146.97,54.31,22.52,11.49,46.75,20.4,71.89,25.85,69.08,15.26,151.06,1.26,200.87-51.41Z"/>
      <path class="cls-1" d="m1704.07,519.73c-49.81,52.67-131.79,66.67-200.87,51.41-25.15-5.46-49.37-14.37-71.89-25.86-46.87-23.02-93.98-49.16-146.97-54.31-33.34-3.04-66.16,6.87-96.76,21.22-43.32,19.38-85.72,44.88-132.72,54.2-49.61,9.95-104.03,2.71-148.85-21.12,0,0-112.87-60.9-173.29-60.9-40.55,0-66.16,6.87-96.76,21.22-43.32,19.38-85.72,44.88-132.72,54.2-49.61,9.95-104.03,2.71-148.85-21.12-70.37-37.46-149.44-52.15-228.23-37.53-4.33.8-8.61,1.85-12.83,3.1l-.44.13s-54.47,15.62-112.13,39.72"/>
    </g>
    <rect class="cls-2" width="1704.07" height="600"/>
  </g>
</svg>