<?xml version="1.0" encoding="UTF-8"?>
<svg id="Layer_2" data-name="Layer 2" xmlns="http://www.w3.org/2000/svg" viewBox="0 0 1704.35 600">
  <defs>
    <style>
      .cls-1, .cls-2 {
        stroke: #003a42;
        stroke-miterlimit: 10;
        stroke-width: 1.1px;
      }

      .cls-1, .cls-3 {
        fill: #e8eeee;
      }

      .cls-2, .cls-4 {
        fill: none;
      }

      .cls-4, .cls-3 {
        stroke-width: 0px;
      }
    </style>
  </defs>
  <g id="LAYER_4" data-name="LAYER 4">
    <g>
      <g>
        <path class="cls-1" d="m662.14,307.78h-11.38c-1.25,0-2.26-1.01-2.26-2.26v-.83c0-2.49,1.37-4.78,3.57-5.95h0c4.87-2.6,10.32-3.96,15.84-3.96h3.42s-3.2,9.55-3.2,9.55l-5.99,3.46Z"/>
        <path class="cls-1" d="m662.77,316.98s1.64-3.95,2.61-5.52,5.04-3.4,5.04-3.4l.64-.28,4.48,116.17-16.69-5.06,3.93-101.91"/>
        <path class="cls-1" d="m678.74,294.92v-64.17c0-2.07-3.26-2.5-3.92-.52-3.28,9.96-7.43,24.96-7.43,37.08,0,15.82,6.97,14.73,6.97,21.09s0,5.69,0,5.69"/>
        <path class="cls-1" d="m668.13,304.32l-52.96,30.58c-1.79,1.04-.54,4.08,1.51,3.65,10.27-2.14,25.33-6.05,35.83-12.11,13.7-7.91,9.27-13.4,14.78-16.58l4.04-2.33-3.21-3.2Z"/>
        <path class="cls-1" d="m682.22,306.08l37.01,27.65c.87.65,1.94-1.46,1.3-2.55-3.34-5.68-9.11-14.48-15.49-19.92-9.58-8.17-11.81-2-16.28-5.52l-3.14-2.23"/>
        <path class="cls-1" d="m686.65,301.18c0,3.91-8.26,7.08-12.17,7.08s-7.08-3.17-7.08-7.08,3.17-7.08,7.08-7.08,12.17,3.17,12.17,7.08Z"/>
        <path class="cls-2" d="m678.74,294.92v-64.17c0-2.07-3.26-2.5-3.92-.52-3.28,9.96-7.43,24.96-7.43,37.08,0,15.82,6.97,14.73,6.97,21.09s0,5.69,0,5.69"/>
      </g>
      <g>
        <g>
          <path class="cls-3" d="m1335.02,434.37v-33.11h-43.24v-53.81h-7.96v53.81h-3.93v-53.81h-7.96v53.81h-31.35v44.99l94.45,34.33v-39.14c4.78.8,8.44,4.96,8.44,9.97v34.48h7v-34.48c0-8.87-6.78-16.18-15.44-17.03Z"/>
          <path class="cls-3" d="m1704.07,600H.76v-157.47c.09-.03.19-.06.28-.09,76.13-25.15,139.44-18.71,200.58,4.44.19.07.38.14.57.22h.01s101.84,55.37,141.6,55.37c8.94,0,17.76-.83,26.04-2.11,17.25-2.67,34.03-7.69,49.96-14.71,5.24-2.31,10.39-4.84,15.44-7.57,33.66-18.24,59.67-29.61,92.24-44.18,25.88-12.13,53.35-21.1,81.38-21.73,5.11-.12,10.24.04,15.38.51,3.79.37,7.54.84,11.27,1.41,8.78,1.35,17.4,3.25,25.89,5.58,4.73,1.29,9.42,2.72,14.07,4.26.02.01.04.01.06.02,25.36,8.4,49.67,20.18,73.69,32.12,0,0,.05.03.15.08,4.32,2.32,100.46,53.78,146.75,53.78,38.03,0,75.04-17.81,75.04-17.81h.01c12.91-6.45,24.6-12.25,35.71-17.71,3.71-1.82,7.36-3.6,10.96-5.34,5.6-2.72,11.1-5.37,16.6-7.98,5.41-2.58,10.81-5.12,16.3-7.67,5.33-2.48,10.73-4.96,16.3-7.49,3.93-1.78,7.95-3.59,12.07-5.43,1.4-.63,2.81-1.25,4.22-1.85,5.39-2.34,10.82-4.54,16.3-6.57,5.39-1.99,10.82-3.82,16.3-5.43,5.39-1.59,10.82-2.97,16.3-4.1,5.39-1.12,10.82-2,16.3-2.6,8.83-.96,17.76-1.19,26.8-.53,2.38.17,4.75.4,7.14.7,2.97.37,5.92.81,8.86,1.31,16.87,2.87,33.25,7.81,49.24,13.9,4.66,1.76,9.28,3.62,13.86,5.56,5.71,2.42,11.37,4.94,16.98,7.54,4.33,2,8.63,4.05,12.9,6.11,1.56.75,3.46,1.68,5.42,2.65,3.52,1.71,7.02,3.45,10.53,5.19.15.08.3.15.45.23.05.02.1.04.13.06,0,0,.22.12.66.34.64.33,1.29.66,1.94.99.57.29,1.23.62,1.98.99,9.46,4.73,19.34,9.22,29.6,13.44,2.78,1.14,5.59,2.26,8.43,3.36,2.31.91,4.65,1.79,7,2.67,12.43,4.61,25.32,8.83,38.55,12.57.1.02.19.05.29.08,39.78,11.24,82.67,18.28,125.71,19.44h.12c18.65.51,37.32-.1,55.78-1.95,8.71-.87,17.37-2.02,25.96-3.45.04-.01.08-.01.12-.02,31.01-5.2,61.06-14.19,88.95-27.64,5.71-2.74,11.33-5.68,16.84-8.81.44-.25.87-.5,1.3-.74l.02,17.14.02,21.85s-.03.01-.04.01v87.06Z"/>
          <path class="cls-2" d="m.76,442.53c76.5-25.34,140.05-18.79,201.44,4.57,0,0,101.85,55.38,141.6,55.38,8.94,0,17.76-.83,26.05-2.11,22.92-3.55,45.01-11.24,65.4-22.28,33.66-18.23,59.67-29.61,92.24-44.18,30.61-14.35,63.42-24.26,96.76-21.22,44.71,4.34,85.24,23.63,124.97,43.39,0,0,99.54,53.86,146.9,53.86,38.04,0,75.05-17.81,75.05-17.81,41.35-20.63,70.19-34.77,107.94-51.62,32.77-14.63,67.2-24.9,103.36-20.38,35.87,4.48,69.56,18.81,101.84,34.42,5.53,2.67,15.44,7.62,16.54,8.13,0,0,101.38,53.89,214.27,53.89s161.42-26.94,188.96-42.62"/>
        </g>
        <g>
          <g>
            <polyline class="cls-2" points="1240.57 435 1240.57 401.27 1335.02 401.27 1335.02 478.16"/>
            <polyline class="cls-2" points="1271.41 448.43 1302 448.43 1302 462.38 1300.13 462.38"/>
            <rect class="cls-2" x="1271.93" y="347.46" width="7.96" height="53.81"/>
            <rect class="cls-2" x="1283.82" y="347.46" width="7.96" height="53.81"/>
            <line class="cls-2" x1="1271.93" y1="371.34" x2="1279.89" y2="371.34"/>
            <line class="cls-2" x1="1271.93" y1="374.36" x2="1279.89" y2="374.36"/>
            <line class="cls-2" x1="1283.82" y1="371.34" x2="1291.78" y2="371.34"/>
            <line class="cls-2" x1="1283.82" y1="374.36" x2="1291.78" y2="374.36"/>
            <path class="cls-2" d="m1342.94,481.07v-31.25c0-4.37-3.55-7.92-7.92-7.92v-7.68c8.6,0,15.6,7,15.6,15.6v34.43"/>
          </g>
          <path class="cls-2" d="m1254.43,441.18v-16.13c0-5,4.05-9.06,9.06-9.06h0c5,0,9.06,4.05,9.06,9.06v23.37"/>
          <path class="cls-2" d="m1278.74,448.43v-23.37c0-5,4.05-9.06,9.06-9.06h0c5,0,9.06,4.05,9.06,9.06v23.37"/>
        </g>
      </g>
    </g>
  </g>
  <g id="Layer_9" data-name="Layer 9">
    <rect class="cls-4" width="1704.07" height="600"/>
  </g>
</svg>