<?xml version="1.0" encoding="UTF-8"?>
<svg id="Layer_2" data-name="Layer 2" xmlns="http://www.w3.org/2000/svg" viewBox="0 0 1704.71 600">
  <defs>
    <style>
      .cls-1, .cls-2 {
        stroke-width: 1.1px;
      }

      .cls-1, .cls-2, .cls-3 {
        stroke: #003a42;
        stroke-miterlimit: 10;
      }

      .cls-1, .cls-4 {
        fill: #e8eeee;
      }

      .cls-2, .cls-5, .cls-3 {
        fill: none;
      }

      .cls-5, .cls-4 {
        stroke-width: 0px;
      }

      .cls-3 {
        stroke-width: 1.22px;
      }
    </style>
  </defs>
  <g id="LAYER_6" data-name="LAYER 6">
    <g>
      <g>
        <path class="cls-4" d="m593.98,358.56h-4.33c-.47,0-.86-.39-.86-.86v-.31c0-.95.52-1.82,1.36-2.26h0c1.85-.99,3.92-1.51,6.02-1.51h1.3s-1.22,3.63-1.22,3.63l-2.28,1.31Z"/>
        <path class="cls-4" d="m600.29,353.67v-24.4c0-.79-1.24-.95-1.49-.2-1.25,3.79-2.82,9.49-2.82,14.1,0,6.01,2.65,5.6,2.65,8.02s0,2.16,0,2.16l1.66.31Z"/>
        <path class="cls-4" d="m596.25,357.25l-20.13,11.62c-.68.39-.2,1.55.57,1.39,3.9-.81,9.63-2.3,13.62-4.6,5.21-3.01,3.53-5.1,5.62-6.3l1.54-.89-1.22-1.22Z"/>
        <path class="cls-4" d="m601.61,357.92l14.07,10.51c.33.25.74-.56.49-.97-1.27-2.16-3.46-5.5-5.89-7.57-3.64-3.1-4.49-.76-6.19-2.1l-1.19-.85-1.29.97Z"/>
        <path class="cls-4" d="m603.29,356.05c0,1.49-3.14,2.69-4.63,2.69s-2.69-1.2-2.69-2.69,1.2-2.69,2.69-2.69,4.63,1.2,4.63,2.69Z"/>
        <path class="cls-4" d="m600.29,353.67v-24.4c0-.79-1.24-.95-1.49-.2-1.25,3.79-2.82,9.49-2.82,14.1,0,6.01,2.65,5.6,2.65,8.02s0,2.16,0,2.16l1.66.31Z"/>
      </g>
      <g>
        <path class="cls-4" d="m1704.49,491.21v21.67c-.08.02-.17.04-.25.05-.01.01-.03.01-.04.01v87.06H.13v-150.56c.25.06.51.12.76.17.09.03.19.05.28.07,66.04,15.14,138.86,9.09,200.58-2.8,2.14-.41,4.26-.83,6.36-1.25,4.29-.87,8.52-1.76,12.69-2.67,39.13-8.56,72.58-18.96,95.18-26.77.09-.03.17-.06.25-.09,8.87-3.06,16.06-5.73,21.24-7.72,4.92-1.88,8.03-3.16,9.07-3.6,3.43-1.44,6.86-2.86,10.3-4.25.09-.03.18-.07.26-.1,5.24-2.12,10.49-4.16,15.76-6.11,8.19-3.04,16.42-5.86,24.71-8.37.11-.03.21-.06.32-.1.91-.27,1.82-.54,2.73-.81,6.43-1.89,12.9-3.58,19.4-5.04.37-.09.74-.17,1.12-.25,24.37-5.38,49.23-7.45,74.67-3.98,25.46,3.58,50.13,11.73,72.58,23.35,4.05,2.15,8.13,4.24,12.24,6.24l.04.02,12.05,5.08.32-9.87v-.04l1.18-36.79v-1.7s.06-.15.15-.37c0-.02.01-.04.02-.05.22-.48.57-1.28.82-1.68,0,0,.01,0,.01-.01.33-.51,1.54-1.11,1.84-1.25.03-.01.05-.02.08-.04l.23-.1,1.25,39.95v.03l.39,12.35s3.63.59,9.98,1.28c6.42.7,15.61,1.51,26.65,1.92,7.15.27,15.07.37,23.51.18,5.2-.12,10.59-.35,16.11-.73,8.86-.61,18.07-1.59,27.39-3.08,43.16-7.31,77.63-14.83,107.53-14.83h367.32c32.73,0,64.29,1,94.56,2.8,2.66.16,5.32.32,7.96.5,1.31.08,2.63.16,3.93.25,2.66.18,5.32.36,7.96.56,6.59.47,13.13.98,19.6,1.53,7.98.67,15.86,1.4,23.64,2.19,7.85.77,15.59,1.61,23.23,2.49.19.02.37.04.56.06,83.29,9.61,153.99,24.6,209.33,39.35.03.01.06.02.09.02,55.86,14.9,96.05,29.53,117.7,38.11.16.07.33.13.49.2,10.32,4.1,16.31,6.78,17.65,7.38t.02.01c.18.09.27.13.27.13Z"/>
        <g>
          <path class="cls-1" d="m593.98,358.56h-4.33c-.47,0-.86-.39-.86-.86v-.31c0-.95.52-1.82,1.36-2.26h0c1.85-.99,3.92-1.51,6.02-1.51h1.3s-1.22,3.63-1.22,3.63l-2.28,1.31Z"/>
          <path class="cls-2" d="m1704.48,491.21s-207.21-95.58-527.03-95.58h-367.27c-29.91,0-64.37,7.52-107.53,14.84-53.52,8.53-103.64.43-103.64.43l-1.65-52.33-.24.11s-1.55.7-1.92,1.29-.99,2.1-.99,2.1v1.7l-1.49,46.7-12.1-5.1c-4.11-2-8.19-4.08-12.24-6.24-22.45-11.62-47.12-19.77-72.58-23.34-32.62-4.45-64.28.2-95.19,9.27-18.28,5.36-36.29,12.26-54.08,19.74-9.57,4.02-195.9,79.72-346.42,44.66"/>
          <path class="cls-1" d="m600.29,353.67v-24.4c0-.79-1.24-.95-1.49-.2-1.25,3.79-2.82,9.49-2.82,14.1,0,6.01,2.65,5.6,2.65,8.02s0,2.16,0,2.16"/>
          <path class="cls-1" d="m596.25,357.25l-20.13,11.62c-.68.39-.2,1.55.57,1.39,3.9-.81,9.63-2.3,13.62-4.6,5.21-3.01,3.53-5.1,5.62-6.3l1.54-.89-1.22-1.22Z"/>
          <path class="cls-1" d="m601.61,357.92l14.07,10.51c.33.25.74-.56.49-.97-1.27-2.16-3.46-5.5-5.89-7.57-3.64-3.1-4.49-.76-6.19-2.1l-1.19-.85"/>
          <path class="cls-1" d="m603.29,356.05c0,1.49-3.14,2.69-4.63,2.69s-2.69-1.2-2.69-2.69,1.2-2.69,2.69-2.69,4.63,1.2,4.63,2.69Z"/>
          <path class="cls-2" d="m600.29,353.67v-24.4c0-.79-1.24-.95-1.49-.2-1.25,3.79-2.82,9.49-2.82,14.1,0,6.01,2.65,5.6,2.65,8.02s0,2.16,0,2.16"/>
        </g>
      </g>
      <g>
        <rect class="cls-3" x="838.97" y="406.23" width="16.3" height="68.8" rx="8.15" ry="8.15"/>
        <rect class="cls-3" x="871.57" y="406.23" width="16.3" height="68.8" rx="8.15" ry="8.15"/>
        <rect class="cls-3" x="904.17" y="406.23" width="16.3" height="68.8" rx="8.15" ry="8.15"/>
        <rect class="cls-3" x="936.77" y="406.23" width="16.3" height="68.8" rx="8.15" ry="8.15"/>
        <rect class="cls-3" x="969.36" y="406.23" width="16.3" height="68.8" rx="8.15" ry="8.15"/>
        <rect class="cls-3" x="1001.96" y="406.23" width="16.3" height="68.8" rx="8.15" ry="8.15"/>
        <rect class="cls-3" x="1034.56" y="406.23" width="16.3" height="68.8" rx="8.15" ry="8.15"/>
        <rect class="cls-3" x="1067.16" y="406.23" width="16.3" height="68.8" rx="8.15" ry="8.15"/>
        <rect class="cls-3" x="1099.76" y="406.23" width="16.3" height="68.8" rx="8.15" ry="8.15"/>
        <rect class="cls-3" x="1132.36" y="406.23" width="16.3" height="68.8" rx="8.15" ry="8.15"/>
      </g>
    </g>
  </g>
  <g id="Layer_9" data-name="Layer 9">
    <rect class="cls-5" x=".13" width="1704.07" height="600"/>
  </g>
</svg>