<svg xmlns="http://www.w3.org/2000/svg" width="487.807" height="463.224" viewBox="0 0 487.807 463.224">
  <g id="Layer_1-2" opacity="0.1" style="mix-blend-mode: multiply;isolation: isolate">
    <path id="Path_33" data-name="Path 33" d="M314.372,0H123.024a71.742,71.742,0,0,0,71.739,71.739h98.3a60.321,60.321,0,0,1,60.324,60.324v6.69a60.327,60.327,0,0,1-60.324,60.331h-98.3a71.742,71.742,0,0,0-71.739,71.739V463.217h94.569V270.823h22.155a30.416,30.416,0,0,1,25.53,13.877L367.569,442.412a45.636,45.636,0,0,0,38.3,20.812h81.936L382.26,300.489a91.3,91.3,0,0,0-38.01-33.054A132.117,132.117,0,0,0,446.435,138.76v-6.69A132.068,132.068,0,0,0,314.372,0M35.879,391.478h-.02A35.858,35.858,0,0,0,0,427.337v.02a35.858,35.858,0,0,0,35.86,35.86h.02a35.858,35.858,0,0,0,35.86-35.86v-.02a35.858,35.858,0,0,0-35.86-35.86m0-192.394h-.02A35.86,35.86,0,0,0,0,234.95v.02a35.858,35.858,0,0,0,35.86,35.86h.02a35.858,35.858,0,0,0,35.86-35.86v-.02a35.864,35.864,0,0,0-35.86-35.866M35.879,0h-.02A35.858,35.858,0,0,0,0,35.86v.013A35.864,35.864,0,0,0,35.86,71.739h.02a35.86,35.86,0,0,0,35.86-35.866V35.86A35.858,35.858,0,0,0,35.879,0" fill="#454495"/>
  </g>
</svg>
