<svg xmlns="http://www.w3.org/2000/svg" xmlns:xlink="http://www.w3.org/1999/xlink" width="900" height="121.664" viewBox="0 0 900 121.664">
  <defs>
    <linearGradient id="linear-gradient" x1="0.217" y1="-1.602" x2="0.783" y2="2.591" gradientUnits="objectBoundingBox">
      <stop offset="0" stop-color="#454495"/>
      <stop offset="1" stop-color="#e44398"/>
    </linearGradient>
  </defs>
  <path id="Path_25" data-name="Path 25" d="M31.108,0Q52.272,0,63.037,9.275,73.8,18.534,73.8,35.7a35.2,35.2,0,0,1-2.98,14.535,32.4,32.4,0,0,1-8.514,11.434,39.644,39.644,0,0,1-13.441,7.48,54.874,54.874,0,0,1-17.759,2.676H8.758v48.441H0V0Zm0,64.861a42.31,42.31,0,0,0,14.2-2.22,31.568,31.568,0,0,0,10.673-6.112,26.691,26.691,0,0,0,6.72-9.214A28.725,28.725,0,0,0,65.044,35.7q0-13.866-8.514-21.347-8.484-7.48-25.421-7.48H8.758V64.831h22.35Zm53.641,9.761v1.612a56.911,56.911,0,0,0,2.22,16.755,33.84,33.84,0,0,0,6.295,12.1,25.8,25.8,0,0,0,9.852,7.359,32.643,32.643,0,0,0,12.924,2.463,38.215,38.215,0,0,0,11.038-1.4,42.839,42.839,0,0,0,7.876-3.132A45.047,45.047,0,0,0,140,107.251a5.7,5.7,0,0,1,2.706-1.4,1.938,1.938,0,0,1,1.7.851l2.22,2.706a22.677,22.677,0,0,1-5.413,4.744,37.451,37.451,0,0,1-7.48,3.771,50.887,50.887,0,0,1-8.849,2.493,49.689,49.689,0,0,1-9.487.943,40.371,40.371,0,0,1-15.812-3.01,33.31,33.31,0,0,1-12.224-8.788,40.565,40.565,0,0,1-7.876-14.14,60.67,60.67,0,0,1-2.767-19.157,52.222,52.222,0,0,1,2.585-16.785,38.475,38.475,0,0,1,7.48-13.258,34.658,34.658,0,0,1,11.981-8.727,39.383,39.383,0,0,1,16.116-3.132,35.1,35.1,0,0,1,13.258,2.463A29.958,29.958,0,0,1,138.754,44a33.351,33.351,0,0,1,7.085,11.586A44.559,44.559,0,0,1,148.424,71.4a4.575,4.575,0,0,1-.517,2.554,1.979,1.979,0,0,1-1.7.669H84.748Zm56.438-5.169a36.264,36.264,0,0,0-1.916-12.194,26.1,26.1,0,0,0-5.382-9.123,23.4,23.4,0,0,0-8.3-5.747A27.118,27.118,0,0,0,115,40.382a31.678,31.678,0,0,0-11.738,2.037A25.673,25.673,0,0,0,94.3,48.289a28.983,28.983,0,0,0-6.082,9.183,43.537,43.537,0,0,0-3.071,11.981h56.012ZM168.554,56.1a51.954,51.954,0,0,1,4.47-9.214,29.69,29.69,0,0,1,5.778-6.842,23.909,23.909,0,0,1,7.3-4.288,25.589,25.589,0,0,1,8.97-1.49,29.522,29.522,0,0,1,5.2.456,13.009,13.009,0,0,1,4.5,1.642l-.669,5.626a1.634,1.634,0,0,1-1.612,1.368,13.029,13.029,0,0,1-3.1-.608,20.608,20.608,0,0,0-5.474-.608,23.543,23.543,0,0,0-8.727,1.49,20.678,20.678,0,0,0-6.811,4.47,28.3,28.3,0,0,0-5.261,7.359A70.391,70.391,0,0,0,168.98,65.53v54.735h-8.149V35.7h4.348a2.81,2.81,0,0,1,2.037.608,3.447,3.447,0,0,1,.76,2.037l.608,17.759Zm105.7,18.519v1.612a56.91,56.91,0,0,0,2.22,16.755,33.839,33.839,0,0,0,6.295,12.1,25.8,25.8,0,0,0,9.852,7.359,32.642,32.642,0,0,0,12.924,2.463,38.215,38.215,0,0,0,11.038-1.4,42.838,42.838,0,0,0,7.876-3.132,45.05,45.05,0,0,0,5.048-3.132,5.7,5.7,0,0,1,2.706-1.4,1.938,1.938,0,0,1,1.7.851l2.22,2.706a22.676,22.676,0,0,1-5.413,4.744,37.45,37.45,0,0,1-7.48,3.771,50.887,50.887,0,0,1-8.849,2.493,49.689,49.689,0,0,1-9.487.943,40.371,40.371,0,0,1-15.812-3.01,33.31,33.31,0,0,1-12.224-8.788,40.356,40.356,0,0,1-7.876-14.14,60.67,60.67,0,0,1-2.767-19.157,52.223,52.223,0,0,1,2.585-16.785,38.475,38.475,0,0,1,7.48-13.258,34.658,34.658,0,0,1,11.981-8.727,39.384,39.384,0,0,1,16.117-3.132,35.1,35.1,0,0,1,13.258,2.463A29.959,29.959,0,0,1,328.26,44a33.352,33.352,0,0,1,7.085,11.586A44.56,44.56,0,0,1,337.93,71.4a4.576,4.576,0,0,1-.517,2.554,1.979,1.979,0,0,1-1.7.669H274.254Zm56.438-5.169a36.264,36.264,0,0,0-1.916-12.194,26.1,26.1,0,0,0-5.382-9.123,23.4,23.4,0,0,0-8.3-5.747,27.118,27.118,0,0,0-10.582-2.007,31.678,31.678,0,0,0-11.738,2.037,25.673,25.673,0,0,0-8.97,5.869,28.983,28.983,0,0,0-6.082,9.183,43.537,43.537,0,0,0-3.071,11.981h56.012Zm79.153-22.441a8.842,8.842,0,0,1-.821.73,1.641,1.641,0,0,1-1.064.3,4.185,4.185,0,0,1-2.281-1.156,27.869,27.869,0,0,0-3.923-2.493,32.821,32.821,0,0,0-6.173-2.493,34.4,34.4,0,0,0-21.925,1.429,26.063,26.063,0,0,0-9.579,7.45,33.051,33.051,0,0,0-5.9,11.738A55.342,55.342,0,0,0,356.175,78a56.583,56.583,0,0,0,2.068,15.812,33.454,33.454,0,0,0,5.9,11.616,25.147,25.147,0,0,0,9.275,7.176,28.948,28.948,0,0,0,12.072,2.463,32.01,32.01,0,0,0,10.248-1.429,35.1,35.1,0,0,0,6.812-3.132,27.725,27.725,0,0,0,4.2-3.132,4.3,4.3,0,0,1,2.554-1.429,2.088,2.088,0,0,1,1.7.851l2.129,2.706a24.479,24.479,0,0,1-4.926,4.744,33.368,33.368,0,0,1-6.72,3.831,40.84,40.84,0,0,1-8.119,2.493,44.64,44.64,0,0,1-9.123.882,36.378,36.378,0,0,1-14.748-2.919,31.537,31.537,0,0,1-11.464-8.514,40.114,40.114,0,0,1-7.48-13.653A57.935,57.935,0,0,1,347.873,78a57.8,57.8,0,0,1,2.554-17.667,39.628,39.628,0,0,1,7.48-13.775,33.65,33.65,0,0,1,12.042-8.971,39.323,39.323,0,0,1,16.269-3.193,37.912,37.912,0,0,1,14.626,2.646,35.844,35.844,0,0,1,11.13,7.146l-2.129,2.889Zm59.479,63.158a1.825,1.825,0,0,0-1.368-.851,2.939,2.939,0,0,0-1.612.882,19.977,19.977,0,0,1-2.646,1.946,20.428,20.428,0,0,1-3.831,1.946,13.712,13.712,0,0,1-5.261.882,13.351,13.351,0,0,1-4.592-.76,9.949,9.949,0,0,1-3.71-2.372,11.511,11.511,0,0,1-2.463-4.136,17.645,17.645,0,0,1-.882-5.99V40.443h26.7V34.422h-26.7V0h-3.831a1.944,1.944,0,0,0-1.46.578A2.9,2.9,0,0,0,437,1.946L434.963,34.27h0l-14.444,2.8V38.74a1.7,1.7,0,0,0,1.7,1.7h12.619v2.189l-.03,59.54q0,9.944,4.8,14.718c3.193,3.162,7.663,4.774,13.38,4.774a25.938,25.938,0,0,0,10.339-2.159,23.189,23.189,0,0,0,8.21-5.747l-2.22-3.558ZM259.536.456A31.711,31.711,0,0,0,254.215,0a29.339,29.339,0,0,0-10.552,1.825A21.441,21.441,0,0,0,235.514,7.3a24.837,24.837,0,0,0-5.261,9.123A39.411,39.411,0,0,0,228.4,29.131v8.454H214.106V40.9c0,1.247.791,1.946,2.372,2.129l11.89.76v76.477h8.149V43.636H263.7V37.615H236.244v-8.18a35.44,35.44,0,0,1,1.4-10.765,18.274,18.274,0,0,1,3.953-7.085,14.969,14.969,0,0,1,6.082-3.953,23.193,23.193,0,0,1,7.693-1.247,27.011,27.011,0,0,1,3.74.213,26.54,26.54,0,0,0,2.646.243,3.881,3.881,0,0,0,1.581-.182,1.262,1.262,0,0,0,.73-.973l.243-3.923a22.99,22.99,0,0,0-4.8-1.308Zm375,81.221q1.049,11.859,6.751,17.333,5.656,5.474,14.839,5.474a26.485,26.485,0,0,0,8.058-1.095,36.683,36.683,0,0,0,5.96-2.463c1.7-.912,3.284-1.7,4.653-2.463a8.862,8.862,0,0,1,4.136-1.095,4.79,4.79,0,0,1,4.075,1.946l6.538,8.18a35.966,35.966,0,0,1-7.937,6.9,41.416,41.416,0,0,1-9,4.318,49.013,49.013,0,0,1-9.4,2.22,73.789,73.789,0,0,1-9.153.608,46.484,46.484,0,0,1-16.481-2.889,37.459,37.459,0,0,1-13.319-8.575,39.489,39.489,0,0,1-8.94-14.11,53.6,53.6,0,0,1-3.284-19.522,46.062,46.062,0,0,1,2.828-16.177,38.635,38.635,0,0,1,8.119-13.228A38.11,38.11,0,0,1,635.9,38.1a42.4,42.4,0,0,1,17.15-3.315,41.451,41.451,0,0,1,14.9,2.585,33.142,33.142,0,0,1,11.768,7.48,34.124,34.124,0,0,1,7.693,12.042,45.455,45.455,0,0,1,2.737,16.3,30.68,30.68,0,0,1-.243,4.166,6.8,6.8,0,0,1-.821,2.615,2.993,2.993,0,0,1-1.551,1.338,7.268,7.268,0,0,1-2.524.365H634.5Zm35.456-13.41a22.954,22.954,0,0,0-.943-6.69,15.642,15.642,0,0,0-2.98-5.626,15.044,15.044,0,0,0-5.139-3.892,17.89,17.89,0,0,0-7.45-1.429c-5.382,0-9.609,1.52-12.68,4.592-3.041,3.041-5.048,7.42-5.96,13.076H669.99ZM722.232,45.8a41.922,41.922,0,0,1,11.038-8,30.029,30.029,0,0,1,13.562-3.01,28.769,28.769,0,0,1,13.106,2.889,28.364,28.364,0,0,1,9.974,8.3A40.19,40.19,0,0,1,776.3,59.023a60.943,60.943,0,0,1,2.25,17.12,62.363,62.363,0,0,1-2.585,18.58,43.431,43.431,0,0,1-7.3,14.353,33.351,33.351,0,0,1-11.312,9.244A32.344,32.344,0,0,1,742.7,121.6a29,29,0,0,1-7.024-.791,25.589,25.589,0,0,1-5.717-2.159,27.778,27.778,0,0,1-4.835-3.315,37.176,37.176,0,0,1-4.166-4.288l-.912,5.078a5.405,5.405,0,0,1-1.885,3.315,5.846,5.846,0,0,1-3.527.943H699.669V0h22.563Zm0,52.3a17.908,17.908,0,0,0,6.9,5.139,20.872,20.872,0,0,0,7.724,1.46,18.919,18.919,0,0,0,7.572-1.52,14.7,14.7,0,0,0,5.838-4.835,24.128,24.128,0,0,0,3.771-8.636,53.773,53.773,0,0,0,1.308-12.832,53.058,53.058,0,0,0-1.064-11.4,22.29,22.29,0,0,0-3.132-7.724,12.409,12.409,0,0,0-5.109-4.409,16.828,16.828,0,0,0-7.024-1.4,17.546,17.546,0,0,0-9.183,2.341,30.32,30.32,0,0,0-7.572,6.811V98.037Zm88.306-16.421q1.049,11.859,6.751,17.333c3.8,3.649,8.727,5.474,14.839,5.474a26.485,26.485,0,0,0,8.058-1.095,36.685,36.685,0,0,0,5.96-2.463c1.7-.912,3.284-1.7,4.652-2.463a8.862,8.862,0,0,1,4.135-1.095,4.79,4.79,0,0,1,4.075,1.946l6.538,8.18a35.968,35.968,0,0,1-7.937,6.9,41.421,41.421,0,0,1-9,4.318,49.013,49.013,0,0,1-9.4,2.22,73.792,73.792,0,0,1-9.153.608,46.484,46.484,0,0,1-16.481-2.889,37.459,37.459,0,0,1-13.319-8.575,39.489,39.489,0,0,1-8.94-14.11,53.6,53.6,0,0,1-3.284-19.522,46.063,46.063,0,0,1,2.828-16.177A37.894,37.894,0,0,1,811.906,38.1a42.4,42.4,0,0,1,17.15-3.315,41.737,41.737,0,0,1,14.931,2.585,32.467,32.467,0,0,1,11.768,7.48,34.126,34.126,0,0,1,7.693,12.042,45.455,45.455,0,0,1,2.737,16.3,30.68,30.68,0,0,1-.243,4.166,6.8,6.8,0,0,1-.821,2.615,2.993,2.993,0,0,1-1.551,1.338,7.387,7.387,0,0,1-2.524.365H810.538Zm35.456-13.41a22.952,22.952,0,0,0-.943-6.69,15.4,15.4,0,0,0-2.98-5.626,14.673,14.673,0,0,0-5.139-3.892,17.889,17.889,0,0,0-7.45-1.429c-5.382,0-9.609,1.52-12.68,4.592-3.041,3.041-5.048,7.42-5.96,13.076h35.152ZM900,0V120.326H877.437V0ZM487.083,9.3h0a9.3,9.3,0,0,0,9.3,9.3h0a9.3,9.3,0,0,0,9.3-9.3h0a9.3,9.3,0,0,0-9.3-9.3h0A9.3,9.3,0,0,0,487.083,9.3Zm0,51.725h0a9.3,9.3,0,0,0,9.3,9.3h0a9.3,9.3,0,0,0,9.3-9.3h0a9.3,9.3,0,0,0-9.3-9.305h0A9.3,9.3,0,0,0,487.083,61.03Zm0,49.992h0a9.3,9.3,0,0,0,9.3,9.305h0a9.3,9.3,0,0,0,9.3-9.305h0a9.3,9.3,0,0,0-9.3-9.305h0A9.3,9.3,0,0,0,487.083,111.021ZM519.042,0a18.642,18.642,0,0,0,18.64,18.64h25.543a15.657,15.657,0,0,1,15.66,15.66v1.733h0a15.658,15.658,0,0,1-15.66,15.66H537.683a18.642,18.642,0,0,0-18.64,18.64v49.992h24.57V70.335h5.747a7.912,7.912,0,0,1,6.629,3.619l26.577,40.96a11.855,11.855,0,0,0,9.944,5.413H613.8L586.367,78.059a23.656,23.656,0,0,0-9.883-8.575,34.335,34.335,0,0,0,26.547-33.419h0V34.331A34.261,34.261,0,0,0,568.76,0H519.042" fill="url(#linear-gradient)"/>
</svg>
