<?xml version="1.0" encoding="UTF-8"?>
<svg id="Layer_2" xmlns="http://www.w3.org/2000/svg" viewBox="0 0 404.61 90">
  <defs>
    <style>
      .cls-1 {
        fill: #fff;
      }
    </style>
  </defs>
  <g id="Layer_1-2" data-name="Layer_1">
    <g>
      <g>
        <path class="cls-1" d="M13.99,0c6.34,0,11.13,1.39,14.35,4.16,3.22,2.78,4.83,6.74,4.83,11.88,0,2.37-.45,4.55-1.34,6.53-.89,1.99-2.17,3.7-3.82,5.14-1.66,1.44-3.67,2.56-6.04,3.36-2.37.8-5.03,1.2-7.99,1.2H3.94v21.78H0V0h13.99ZM13.99,29.16c2.37,0,4.5-.33,6.38-.99,1.89-.66,3.48-1.58,4.8-2.75,1.31-1.17,2.32-2.55,3.02-4.15.7-1.59,1.05-3.33,1.05-5.22,0-4.15-1.27-7.35-3.82-9.59-2.55-2.24-6.36-3.36-11.43-3.36H3.94v26.06h10.05Z"/>
        <path class="cls-1" d="M38.1,33.55v.73c0,2.85.33,5.36.99,7.53.66,2.17,1.61,3.98,2.83,5.45,1.22,1.46,2.7,2.57,4.43,3.31,1.73.74,3.67,1.11,5.81,1.11,1.91,0,3.57-.21,4.97-.63,1.4-.42,2.58-.89,3.54-1.41.95-.52,1.71-.99,2.27-1.41.56-.42.97-.63,1.22-.63.33,0,.59.13.76.38l.99,1.22c-.61.76-1.42,1.48-2.43,2.14-1.01.66-2.13,1.23-3.36,1.7-1.24.47-2.56.85-3.97,1.13s-2.83.42-4.26.42c-2.6,0-4.97-.45-7.11-1.36-2.14-.9-3.97-2.22-5.5-3.96s-2.71-3.85-3.54-6.36c-.83-2.51-1.24-5.38-1.24-8.62,0-2.73.39-5.24,1.17-7.55.78-2.31,1.9-4.29,3.36-5.96,1.46-1.67,3.26-2.97,5.39-3.92,2.13-.94,4.54-1.41,7.24-1.41,2.14,0,4.13.37,5.96,1.11,1.83.74,3.43,1.82,4.78,3.23,1.35,1.41,2.41,3.15,3.19,5.21.78,2.06,1.17,4.43,1.17,7.11,0,.56-.08.94-.23,1.15s-.41.31-.76.31h-27.67ZM63.47,31.22c0-2.04-.29-3.86-.86-5.48-.57-1.62-1.38-2.99-2.43-4.11-1.04-1.12-2.29-1.98-3.73-2.58-1.44-.6-3.03-.9-4.76-.9-1.96,0-3.72.31-5.27.92-1.55.61-2.9,1.49-4.03,2.64-1.13,1.15-2.04,2.52-2.73,4.13s-1.15,3.4-1.38,5.39h25.18Z"/>
        <path class="cls-1" d="M75.77,25.22c.59-1.55,1.25-2.93,2.01-4.15.75-1.21,1.62-2.23,2.6-3.08.98-.84,2.08-1.48,3.29-1.93,1.21-.45,2.55-.67,4.03-.67.79,0,1.57.07,2.33.21.76.14,1.44.39,2.03.74l-.31,2.52c-.13.41-.37.61-.73.61-.31,0-.77-.09-1.39-.27-.62-.18-1.45-.27-2.46-.27-1.48,0-2.78.22-3.92.67-1.13.45-2.15,1.11-3.06,2.01-.9.89-1.69,1.99-2.37,3.31-.68,1.31-1.29,2.82-1.85,4.53v24.61h-3.67V16.05h1.95c.43,0,.74.09.92.27.18.18.29.48.34.92l.27,7.99Z"/>
        <path class="cls-1" d="M123.3,33.55v.73c0,2.85.33,5.36.99,7.53.66,2.17,1.61,3.98,2.83,5.45,1.22,1.46,2.7,2.57,4.43,3.31,1.73.74,3.67,1.11,5.81,1.11,1.91,0,3.57-.21,4.97-.63,1.4-.42,2.58-.89,3.54-1.41.95-.52,1.71-.99,2.27-1.41.56-.42.97-.63,1.22-.63.33,0,.59.13.76.38l.99,1.22c-.61.76-1.42,1.48-2.43,2.14-1.01.66-2.13,1.23-3.36,1.7-1.24.47-2.56.85-3.97,1.13s-2.83.42-4.26.42c-2.6,0-4.97-.45-7.11-1.36-2.14-.9-3.97-2.22-5.5-3.96-1.53-1.73-2.71-3.85-3.54-6.36-.83-2.51-1.24-5.38-1.24-8.62,0-2.73.39-5.24,1.17-7.55.78-2.31,1.9-4.29,3.36-5.96,1.46-1.67,3.26-2.97,5.39-3.92,2.13-.94,4.54-1.41,7.24-1.41,2.14,0,4.13.37,5.96,1.11,1.83.74,3.43,1.82,4.78,3.23,1.35,1.41,2.41,3.15,3.19,5.21.78,2.06,1.17,4.43,1.17,7.11,0,.56-.08.94-.23,1.15s-.41.31-.76.31h-27.67ZM148.67,31.22c0-2.04-.29-3.86-.86-5.48-.57-1.62-1.38-2.99-2.43-4.11-1.04-1.12-2.29-1.98-3.73-2.58-1.44-.6-3.03-.9-4.76-.9-1.96,0-3.72.31-5.27.92-1.55.61-2.9,1.49-4.03,2.64-1.13,1.15-2.04,2.52-2.73,4.13-.69,1.6-1.15,3.4-1.38,5.39h25.18Z"/>
        <path class="cls-1" d="M184.25,21.13c-.13.13-.25.24-.36.33s-.27.13-.48.13c-.26,0-.6-.17-1.03-.52-.43-.34-1.02-.72-1.76-1.13-.74-.41-1.66-.78-2.77-1.13s-2.45-.52-4.03-.52c-2.19,0-4.13.39-5.83,1.16-1.69.78-3.13,1.89-4.3,3.34-1.17,1.45-2.06,3.21-2.66,5.27-.6,2.06-.9,4.38-.9,6.95s.31,5.04.94,7.11,1.51,3.8,2.66,5.22c1.15,1.41,2.53,2.49,4.16,3.23,1.63.74,3.44,1.11,5.43,1.11,1.83,0,3.37-.22,4.6-.65,1.24-.43,2.25-.9,3.06-1.41.8-.51,1.43-.98,1.89-1.41s.84-.65,1.15-.65.56.13.76.38l.96,1.22c-.59.76-1.32,1.48-2.22,2.14-.89.66-1.9,1.24-3.02,1.72-1.12.48-2.34.86-3.65,1.13-1.31.27-2.68.4-4.11.4-2.42,0-4.63-.44-6.63-1.32-2-.88-3.72-2.15-5.16-3.82-1.44-1.67-2.56-3.71-3.36-6.13-.8-2.42-1.2-5.17-1.2-8.25,0-2.9.38-5.55,1.15-7.95.76-2.39,1.89-4.46,3.36-6.19,1.48-1.73,3.28-3.08,5.41-4.03,2.13-.96,4.57-1.43,7.32-1.43,2.47,0,4.66.4,6.57,1.18,1.91.79,3.58,1.86,5.01,3.21l-.95,1.3Z"/>
        <path class="cls-1" d="M210.99,49.52c-.2-.25-.41-.38-.61-.38-.18,0-.42.13-.73.4-.31.27-.7.56-1.18.88-.48.32-1.06.61-1.72.88-.66.27-1.45.4-2.37.4-.74,0-1.43-.11-2.06-.34-.64-.23-1.19-.59-1.66-1.07-.47-.48-.84-1.1-1.11-1.85-.27-.75-.4-1.65-.4-2.69v-27.55h12v-2.71h-12V0h-1.72c-.28,0-.5.09-.65.27-.15.18-.26.38-.31.61l-.92,14.54v.02s-6.5,1.24-6.5,1.24v.75c0,.42.34.76.76.76h5.68l-.02.98v26.77c0,2.98.72,5.18,2.16,6.61,1.44,1.43,3.45,2.14,6.02,2.14,1.6,0,3.15-.33,4.64-.98,1.49-.65,2.72-1.51,3.69-2.58l-.99-1.6Z"/>
        <path class="cls-1" d="M116.67.21c-.8-.14-1.6-.21-2.39-.21-1.73,0-3.31.27-4.74.82-1.43.55-2.65,1.37-3.67,2.47-1.02,1.1-1.81,2.46-2.37,4.11-.56,1.64-.84,3.55-.84,5.71v3.8h-6.42v1.49c0,.56.36.88,1.07.96l5.35.34v34.38h3.67V19.62h12.23v-2.71h-12.34v-3.68c0-1.91.21-3.52.63-4.83.42-1.31,1.01-2.37,1.78-3.19.76-.81,1.68-1.41,2.73-1.78,1.06-.37,2.21-.55,3.46-.55.64,0,1.2.03,1.68.1.48.06.88.1,1.18.11.31.01.54-.01.71-.08.17-.06.27-.21.32-.44l.11-1.76c-.64-.25-1.36-.45-2.16-.59Z"/>
      </g>
      <path class="cls-1" d="M285.26,36.72c.32,3.55,1.33,6.15,3.03,7.79,1.7,1.64,3.92,2.46,6.67,2.46,1.4,0,2.6-.16,3.62-.5,1.02-.33,1.91-.7,2.68-1.1.77-.4,1.47-.77,2.09-1.1.62-.33,1.24-.5,1.86-.5.78,0,1.4.29,1.84.88l2.94,3.67c-1.08,1.25-2.27,2.28-3.56,3.1-1.3.82-2.65,1.47-4.04,1.95s-2.8.81-4.23.99c-1.42.18-2.79.28-4.12.28-2.65,0-5.11-.44-7.4-1.31-2.29-.87-4.29-2.15-5.99-3.86-1.7-1.7-3.04-3.81-4.02-6.34s-1.47-5.45-1.47-8.78c0-2.57.42-5,1.27-7.27.85-2.28,2.06-4.26,3.66-5.95,1.59-1.69,3.53-3.03,5.81-4.02,2.28-.99,4.85-1.49,7.72-1.49,2.43,0,4.66.38,6.7,1.16,2.05.77,3.81,1.89,5.29,3.36,1.48,1.47,2.63,3.28,3.45,5.42.82,2.14,1.23,4.59,1.23,7.33,0,.76-.04,1.38-.11,1.87-.07.49-.2.88-.37,1.18-.17.29-.4.5-.7.61-.29.11-.67.17-1.14.17h-22.71ZM301.2,30.69c0-1.05-.14-2.06-.42-3.01s-.73-1.8-1.34-2.54-1.38-1.32-2.31-1.75c-.93-.43-2.05-.64-3.34-.64-2.43,0-4.32.69-5.7,2.06-1.37,1.37-2.27,3.33-2.68,5.88h15.8Z"/>
      <path class="cls-1" d="M324.69,20.59c1.49-1.49,3.15-2.69,4.96-3.6,1.81-.91,3.85-1.36,6.1-1.36s4.14.43,5.9,1.3c1.75.87,3.25,2.11,4.48,3.73,1.24,1.62,2.19,3.57,2.87,5.86.67,2.29,1.01,4.86,1.01,7.7,0,3.06-.39,5.85-1.16,8.36-.77,2.51-1.87,4.66-3.29,6.45-1.42,1.79-3.12,3.17-5.09,4.15-1.97.98-4.17,1.47-6.6,1.47-1.18,0-2.23-.12-3.16-.35-.93-.23-1.79-.56-2.57-.97-.78-.42-1.51-.91-2.17-1.49-.66-.58-1.29-1.22-1.87-1.93l-.4,2.28c-.17.71-.45,1.21-.85,1.49s-.92.42-1.58.42h-6.72V0h10.14v20.58ZM324.69,44.1c.96,1.1,1.99,1.87,3.11,2.31,1.11.44,2.27.66,3.47.66s2.38-.23,3.4-.68c1.02-.45,1.89-1.18,2.63-2.17s1.3-2.28,1.69-3.88c.39-1.59.59-3.52.59-5.77,0-2.01-.16-3.72-.48-5.13-.32-1.41-.79-2.57-1.41-3.47s-1.39-1.57-2.3-1.98c-.91-.42-1.96-.62-3.16-.62-1.59,0-2.97.35-4.13,1.05-1.16.7-2.3,1.72-3.4,3.07v16.61Z"/>
      <path class="cls-1" d="M364.38,36.72c.32,3.55,1.33,6.15,3.03,7.79,1.7,1.64,3.93,2.46,6.67,2.46,1.4,0,2.6-.16,3.62-.5,1.02-.33,1.91-.7,2.68-1.1.77-.4,1.47-.77,2.09-1.1.62-.33,1.24-.5,1.86-.5.78,0,1.4.29,1.84.88l2.94,3.67c-1.08,1.25-2.27,2.28-3.56,3.1-1.3.82-2.65,1.47-4.04,1.95-1.4.48-2.81.81-4.23.99-1.42.18-2.79.28-4.12.28-2.65,0-5.11-.44-7.4-1.31-2.29-.87-4.29-2.15-5.99-3.86-1.7-1.7-3.04-3.81-4.02-6.34-.98-2.52-1.47-5.45-1.47-8.78,0-2.57.42-5,1.27-7.27.85-2.28,2.06-4.26,3.66-5.95,1.59-1.69,3.53-3.03,5.81-4.02,2.28-.99,4.85-1.49,7.72-1.49,2.43,0,4.66.38,6.71,1.16,2.04.77,3.81,1.89,5.29,3.36,1.48,1.47,2.63,3.28,3.45,5.42.82,2.14,1.23,4.59,1.23,7.33,0,.76-.04,1.38-.11,1.87-.07.49-.2.88-.37,1.18-.17.29-.4.5-.7.61-.29.11-.67.17-1.14.17h-22.71ZM380.33,30.69c0-1.05-.14-2.06-.42-3.01-.28-.96-.73-1.8-1.34-2.54-.61-.73-1.38-1.32-2.31-1.75-.93-.43-2.05-.64-3.34-.64-2.43,0-4.32.69-5.7,2.06-1.37,1.37-2.27,3.33-2.68,5.88h15.8Z"/>
      <path class="cls-1" d="M404.61,0v54.09h-10.14V0h10.14Z"/>
      <g>
        <rect class="cls-1" x="218.98" y="0" width="8.38" height="8.38" rx="4.19" ry="4.19"/>
        <rect class="cls-1" x="218.98" y="23.25" width="8.38" height="8.38" rx="4.19" ry="4.19"/>
        <rect class="cls-1" x="218.98" y="45.72" width="8.38" height="8.38" rx="4.19" ry="4.19"/>
      </g>
      <path class="cls-1" d="M233.34,0c0,4.63,3.75,8.38,8.38,8.38h11.48c3.89,0,7.05,3.15,7.05,7.05v.78h0c0,3.89-3.15,7.05-7.05,7.05h-11.48s0,0,0,0c-4.63,0-8.38,3.75-8.38,8.38v22.47h11.04v-22.47h2.59c1.2,0,2.33.61,2.98,1.62l11.95,18.42c.98,1.52,2.67,2.43,4.47,2.43h9.57l-12.33-19c-1.1-1.69-2.64-3.02-4.44-3.86,6.84-1.58,11.93-7.71,11.93-15.03h0v-.78C271.11,6.91,264.21,0,255.69,0h-22.35"/>
      <g>
        <path class="cls-1" d="M13.08,73.68v16.14h-2.19v-7.34H2.19v7.34H0v-16.14h2.19v7.2h8.71v-7.2h2.19Z"/>
        <path class="cls-1" d="M32.76,88.04v1.78h-9.96v-16.14h9.95v1.78h-7.76v5.36h6.29v1.71h-6.29v5.51h7.77Z"/>
        <path class="cls-1" d="M57.59,89.82h-1.69c-.2,0-.35-.05-.47-.15s-.21-.22-.27-.37l-1.51-3.9h-7.24l-1.51,3.9c-.04.13-.13.26-.26.36-.13.11-.29.16-.47.16h-1.69l6.46-16.14h2.21l6.45,16.14ZM53.04,83.83l-2.53-6.57c-.08-.2-.15-.42-.24-.68-.08-.26-.16-.54-.24-.83-.16.61-.32,1.12-.48,1.52l-2.53,6.56h6.03Z"/>
        <path class="cls-1" d="M79.24,89.82h-1.94c-.4,0-.69-.15-.88-.46l-4.19-5.77c-.13-.18-.26-.31-.41-.39-.15-.08-.37-.12-.68-.12h-1.66v6.74h-2.17v-16.14h4.56c1.02,0,1.9.1,2.65.31.74.21,1.36.51,1.84.9.48.39.84.86,1.08,1.41s.35,1.17.35,1.85c0,.57-.09,1.1-.27,1.6-.18.5-.44.94-.78,1.33-.34.39-.76.73-1.25,1.01-.49.28-1.05.49-1.67.63.28.16.52.39.72.69l4.71,6.41ZM71.78,81.49c.63,0,1.19-.08,1.67-.23.48-.15.89-.37,1.22-.65.33-.28.57-.62.74-1.01.17-.39.25-.82.25-1.3,0-.96-.32-1.69-.95-2.17-.63-.49-1.58-.73-2.84-.73h-2.39v6.09h2.3Z"/>
        <path class="cls-1" d="M109.31,75.51h-5.23v14.31h-2.17v-14.31h-5.24v-1.84h12.64v1.84Z"/>
        <path class="cls-1" d="M134.94,81.75c0,1.21-.19,2.32-.57,3.33-.38,1.01-.92,1.88-1.62,2.61-.7.73-1.54,1.29-2.52,1.7s-2.06.6-3.25.6-2.27-.2-3.24-.6c-.98-.4-1.81-.97-2.51-1.7-.7-.73-1.24-1.6-1.62-2.61-.38-1.01-.57-2.12-.57-3.33s.19-2.32.57-3.33c.38-1.01.92-1.88,1.62-2.61.7-.73,1.54-1.3,2.51-1.71.98-.41,2.06-.61,3.24-.61s2.27.2,3.25.61,1.82.97,2.52,1.71c.7.73,1.24,1.6,1.62,2.61.38,1.01.57,2.12.57,3.33ZM132.7,81.75c0-.99-.14-1.88-.41-2.67-.27-.79-.65-1.45-1.15-2-.5-.54-1.1-.96-1.8-1.26-.71-.29-1.49-.44-2.37-.44s-1.65.15-2.35.44c-.71.29-1.31.71-1.81,1.26-.5.55-.88,1.21-1.15,2-.27.79-.41,1.68-.41,2.67s.14,1.88.41,2.66c.27.78.66,1.45,1.15,1.99s1.1.96,1.81,1.25,1.49.43,2.35.43,1.66-.15,2.37-.43c.71-.29,1.31-.71,1.8-1.25s.88-1.21,1.15-1.99c.27-.79.41-1.67.41-2.66Z"/>
        <path class="cls-1" d="M161.46,73.68v16.14h-1.92v-11.86c0-.16,0-.33.02-.51.01-.18.02-.36.04-.55l-5.54,10.09c-.17.34-.44.51-.79.51h-.32c-.35,0-.62-.17-.79-.51l-5.65-10.14c.04.4.07.77.07,1.1v11.86h-1.92v-16.14h1.61c.2,0,.35.02.45.06s.21.14.3.32l5.58,9.94c.09.18.18.37.26.56.09.2.17.39.24.6.08-.2.15-.4.24-.6.08-.2.17-.39.27-.57l5.47-9.92c.09-.17.19-.28.3-.32s.26-.06.46-.06h1.61Z"/>
        <path class="cls-1" d="M187.09,81.75c0,1.21-.19,2.32-.57,3.33-.38,1.01-.92,1.88-1.62,2.61-.7.73-1.54,1.29-2.52,1.7s-2.06.6-3.25.6-2.27-.2-3.24-.6c-.98-.4-1.81-.97-2.51-1.7-.7-.73-1.24-1.6-1.62-2.61-.38-1.01-.57-2.12-.57-3.33s.19-2.32.57-3.33c.38-1.01.92-1.88,1.62-2.61.7-.73,1.54-1.3,2.51-1.71.98-.41,2.06-.61,3.24-.61s2.27.2,3.25.61c.98.41,1.82.97,2.52,1.71.7.73,1.24,1.6,1.62,2.61.38,1.01.57,2.12.57,3.33ZM184.85,81.75c0-.99-.14-1.88-.41-2.67-.27-.79-.65-1.45-1.15-2-.5-.54-1.1-.96-1.8-1.26-.71-.29-1.49-.44-2.37-.44s-1.65.15-2.35.44c-.71.29-1.31.71-1.81,1.26-.5.55-.88,1.21-1.15,2-.27.79-.41,1.68-.41,2.67s.14,1.88.41,2.66c.27.78.66,1.45,1.15,1.99s1.1.96,1.81,1.25,1.49.43,2.35.43,1.66-.15,2.37-.43c.71-.29,1.31-.71,1.8-1.25s.88-1.21,1.15-1.99c.27-.79.41-1.67.41-2.66Z"/>
        <path class="cls-1" d="M208.74,89.82h-1.94c-.4,0-.69-.15-.88-.46l-4.19-5.77c-.13-.18-.26-.31-.41-.39-.15-.08-.37-.12-.68-.12h-1.66v6.74h-2.17v-16.14h4.56c1.02,0,1.9.1,2.65.31.74.21,1.36.51,1.84.9.48.39.84.86,1.08,1.41.23.55.35,1.17.35,1.85,0,.57-.09,1.1-.27,1.6-.18.5-.44.94-.78,1.33-.34.39-.76.73-1.25,1.01-.49.28-1.05.49-1.67.63.28.16.52.39.72.69l4.71,6.41ZM201.28,81.49c.63,0,1.19-.08,1.67-.23.48-.15.89-.37,1.22-.65.33-.28.57-.62.74-1.01.17-.39.25-.82.25-1.3,0-.96-.32-1.69-.95-2.17-.63-.49-1.58-.73-2.84-.73h-2.39v6.09h2.3Z"/>
        <path class="cls-1" d="M230.39,89.82h-1.94c-.4,0-.69-.15-.88-.46l-4.19-5.77c-.13-.18-.26-.31-.41-.39-.15-.08-.37-.12-.68-.12h-1.66v6.74h-2.17v-16.14h4.56c1.02,0,1.9.1,2.65.31.74.21,1.36.51,1.84.9.48.39.84.86,1.08,1.41.23.55.35,1.17.35,1.85,0,.57-.09,1.1-.27,1.6-.18.5-.44.94-.78,1.33-.34.39-.76.73-1.25,1.01-.49.28-1.05.49-1.67.63.28.16.52.39.72.69l4.71,6.41ZM222.93,81.49c.63,0,1.19-.08,1.67-.23.48-.15.89-.37,1.22-.65.33-.28.57-.62.74-1.01.17-.39.25-.82.25-1.3,0-.96-.32-1.69-.95-2.17-.63-.49-1.58-.73-2.84-.73h-2.39v6.09h2.3Z"/>
        <path class="cls-1" d="M256.03,81.75c0,1.21-.19,2.32-.57,3.33-.38,1.01-.92,1.88-1.62,2.61-.7.73-1.54,1.29-2.52,1.7-.98.4-2.06.6-3.25.6s-2.27-.2-3.24-.6c-.98-.4-1.81-.97-2.51-1.7-.7-.73-1.24-1.6-1.62-2.61-.38-1.01-.57-2.12-.57-3.33s.19-2.32.57-3.33c.38-1.01.92-1.88,1.62-2.61.7-.73,1.54-1.3,2.51-1.71.98-.41,2.06-.61,3.24-.61s2.27.2,3.25.61c.98.41,1.82.97,2.52,1.71.7.73,1.24,1.6,1.62,2.61.38,1.01.57,2.12.57,3.33ZM253.78,81.75c0-.99-.13-1.88-.41-2.67-.27-.79-.65-1.45-1.15-2-.5-.54-1.1-.96-1.8-1.26-.71-.29-1.5-.44-2.37-.44s-1.65.15-2.35.44c-.71.29-1.31.71-1.81,1.26-.5.55-.88,1.21-1.15,2-.27.79-.41,1.68-.41,2.67s.13,1.88.41,2.66c.27.78.65,1.45,1.15,1.99.5.54,1.1.96,1.81,1.25.71.29,1.49.43,2.35.43s1.66-.15,2.37-.43,1.31-.71,1.8-1.25.88-1.21,1.15-1.99c.27-.79.41-1.67.41-2.66Z"/>
        <path class="cls-1" d="M288.38,73.68l-5.04,16.14h-1.96l-4.09-12.31c-.04-.12-.07-.25-.11-.38-.03-.14-.07-.28-.11-.43-.04.15-.08.29-.11.43-.04.13-.08.26-.11.38l-4.11,12.31h-1.96l-5.04-16.14h1.81c.2,0,.36.05.49.15.13.1.22.22.25.37l3.33,11.22c.05.2.1.42.15.65s.1.48.14.74c.05-.26.11-.51.16-.75s.12-.45.19-.65l3.8-11.22c.04-.13.13-.25.26-.35.13-.11.29-.16.48-.16h.63c.2,0,.35.05.47.15.12.1.21.22.27.37l3.78,11.22c.07.2.13.41.19.63.06.23.11.46.16.71.04-.25.08-.48.12-.71.04-.22.09-.44.15-.63l3.35-11.22c.04-.13.12-.26.25-.36.13-.11.29-.16.48-.16h1.7Z"/>
        <path class="cls-1" d="M295.53,72.6c.32.53.53,1.1.64,1.69s.12,1.18.03,1.76c-.09.58-.28,1.13-.56,1.67-.29.53-.66,1.01-1.14,1.42l-.61-.39c-.11-.07-.16-.16-.15-.26.01-.11.05-.2.11-.26.2-.24.36-.53.5-.87.14-.34.23-.71.27-1.1.04-.4.02-.8-.06-1.22s-.23-.83-.47-1.22c-.1-.16-.13-.3-.08-.42.04-.12.13-.22.28-.28l1.24-.5Z"/>
        <path class="cls-1" d="M310.19,76.2c-.07.11-.14.2-.22.25-.08.06-.17.08-.29.08-.13,0-.28-.06-.45-.19-.17-.13-.39-.27-.65-.42s-.57-.29-.94-.42c-.36-.13-.81-.19-1.32-.19-.49,0-.92.07-1.29.2-.37.13-.68.31-.93.53-.25.23-.44.49-.57.79-.13.3-.19.63-.19.99,0,.45.11.82.33,1.12.22.3.51.55.88.76.36.21.78.39,1.24.55s.94.31,1.42.48.96.35,1.42.56.87.47,1.24.78c.36.32.66.7.88,1.16.22.46.33,1.02.33,1.69,0,.71-.12,1.37-.36,1.99s-.59,1.16-1.05,1.62-1.03.82-1.7,1.08c-.67.26-1.44.39-2.29.39-1.05,0-2.01-.19-2.86-.57s-1.59-.89-2.2-1.54l.63-1.04c.06-.08.13-.15.22-.21s.18-.08.29-.08c.1,0,.21.04.33.12.12.08.26.18.42.3.16.12.34.25.54.39s.43.27.69.39c.26.12.55.22.88.3.33.08.7.12,1.12.12.52,0,.98-.07,1.39-.21s.75-.34,1.03-.6c.28-.26.5-.57.65-.93.15-.36.23-.76.23-1.21,0-.49-.11-.89-.33-1.2-.22-.31-.51-.57-.87-.78s-.77-.39-1.24-.54c-.46-.15-.94-.3-1.42-.45-.48-.15-.95-.33-1.42-.53s-.88-.47-1.24-.79c-.36-.32-.65-.73-.87-1.21-.22-.48-.33-1.08-.33-1.8,0-.57.11-1.12.33-1.66.22-.53.54-1.01.97-1.42.42-.41.95-.74,1.57-.99.62-.25,1.33-.37,2.13-.37.9,0,1.72.14,2.46.43.74.29,1.39.7,1.95,1.24l-.53,1.04Z"/>
        <path class="cls-1" d="M340.83,86.49c.12,0,.22.05.31.15l.87.93c-.66.77-1.46,1.36-2.4,1.79-.94.43-2.08.64-3.42.64-1.16,0-2.21-.2-3.15-.6-.95-.4-1.75-.97-2.42-1.69-.67-.72-1.19-1.59-1.55-2.61-.37-1.01-.55-2.13-.55-3.35s.19-2.33.57-3.35c.38-1.01.92-1.88,1.62-2.61.69-.73,1.53-1.29,2.5-1.7.97-.4,2.04-.6,3.21-.6s2.16.18,3.04.55c.88.37,1.65.87,2.32,1.5l-.72,1c-.04.08-.1.14-.17.19-.07.05-.17.07-.29.07-.14,0-.3-.07-.5-.22-.2-.15-.45-.31-.77-.49-.32-.18-.71-.34-1.18-.49-.47-.15-1.06-.22-1.75-.22-.83,0-1.6.14-2.29.43-.69.29-1.29.71-1.79,1.26s-.89,1.22-1.17,2.01c-.28.79-.42,1.68-.42,2.67s.14,1.9.43,2.69c.29.79.68,1.45,1.18,2,.5.55,1.09.96,1.77,1.25.68.29,1.41.43,2.2.43.48,0,.91-.03,1.3-.08.39-.06.74-.14,1.07-.26.33-.12.63-.27.91-.46.28-.18.56-.4.84-.66.13-.11.26-.17.38-.17Z"/>
        <path class="cls-1" d="M366.85,89.82h-1.69c-.2,0-.35-.05-.47-.15s-.21-.22-.27-.37l-1.51-3.9h-7.24l-1.51,3.9c-.04.13-.13.26-.26.36-.13.11-.29.16-.47.16h-1.69l6.45-16.14h2.21l6.46,16.14ZM362.3,83.83l-2.53-6.57c-.08-.2-.15-.42-.24-.68-.08-.26-.16-.54-.24-.83-.16.61-.32,1.12-.48,1.52l-2.53,6.56h6.03Z"/>
        <path class="cls-1" d="M385.73,87.98v1.84h-9.16v-16.14h2.17v14.31h6.98Z"/>
        <path class="cls-1" d="M404.61,87.98v1.84h-9.16v-16.14h2.17v14.31h6.98Z"/>
      </g>
    </g>
  </g>
</svg>