<?xml version="1.0" encoding="UTF-8"?>
<svg id="Layer_2" xmlns="http://www.w3.org/2000/svg" viewBox="0 0 450 60.82">
  <defs>
    <style>
      .cls-1 {
        fill: #fff;
      }
    </style>
  </defs>
  <g id="Layer_1-2" data-name="Layer_1">
    <g>
      <g>
        <path class="cls-1" d="M15.55,0c7.05,0,12.37,1.54,15.96,4.63,3.58,3.09,5.38,7.49,5.38,13.22,0,2.64-.5,5.06-1.49,7.27-.99,2.21-2.41,4.12-4.25,5.72-1.84,1.6-4.08,2.85-6.71,3.74-2.64.89-5.6,1.34-8.88,1.34H4.38v24.22H0V0h15.55ZM15.55,32.43c2.63,0,5-.37,7.1-1.11,2.1-.74,3.87-1.76,5.33-3.06,1.46-1.3,2.58-2.84,3.36-4.61.78-1.77,1.17-3.7,1.17-5.8,0-4.62-1.42-8.17-4.25-10.67-2.83-2.49-7.07-3.74-12.71-3.74H4.38v28.99h11.18Z"/>
        <path class="cls-1" d="M42.37,37.31v.81c0,3.17.37,5.96,1.11,8.37.74,2.41,1.79,4.43,3.15,6.06,1.36,1.63,3,2.85,4.93,3.68,1.93.82,4.08,1.23,6.46,1.23,2.12,0,3.97-.23,5.52-.7,1.56-.47,2.87-.99,3.93-1.57,1.06-.58,1.9-1.1,2.53-1.57.62-.47,1.08-.7,1.36-.7.37,0,.65.14.85.42l1.11,1.36c-.68.85-1.58,1.64-2.7,2.38-1.12.74-2.37,1.37-3.74,1.89-1.37.52-2.85.94-4.42,1.25-1.57.31-3.15.47-4.74.47-2.89,0-5.52-.5-7.9-1.51-2.38-1.01-4.42-2.47-6.12-4.4-1.7-1.93-3.01-4.29-3.93-7.08-.92-2.79-1.38-5.99-1.38-9.58,0-3.03.43-5.83,1.3-8.39.86-2.56,2.11-4.77,3.74-6.63,1.63-1.86,3.63-3.31,5.99-4.36,2.36-1.05,5.05-1.57,8.05-1.57,2.38,0,4.59.41,6.63,1.23,2.04.82,3.81,2.02,5.31,3.59,1.5,1.57,2.68,3.51,3.55,5.8.86,2.3,1.3,4.93,1.3,7.9,0,.62-.09,1.05-.25,1.28s-.45.34-.85.34h-30.77ZM70.59,34.72c0-2.27-.32-4.3-.96-6.1-.64-1.8-1.54-3.32-2.7-4.57-1.16-1.25-2.54-2.2-4.14-2.87-1.6-.67-3.36-1-5.29-1-2.18,0-4.14.34-5.87,1.02-1.73.68-3.22,1.66-4.48,2.93-1.26,1.27-2.27,2.8-3.04,4.59s-1.27,3.78-1.53,5.99h28.01Z"/>
        <path class="cls-1" d="M84.27,28.05c.65-1.73,1.39-3.26,2.23-4.61.84-1.34,1.8-2.49,2.89-3.42,1.09-.93,2.31-1.65,3.65-2.15,1.35-.5,2.84-.74,4.48-.74.88,0,1.74.08,2.59.23.85.16,1.6.43,2.25.83l-.34,2.81c-.14.45-.41.68-.81.68-.34,0-.86-.1-1.55-.3-.69-.2-1.61-.3-2.74-.3-1.64,0-3.1.25-4.36.74-1.26.5-2.39,1.24-3.4,2.23-1.01.99-1.88,2.22-2.63,3.68-.75,1.46-1.44,3.14-2.06,5.04v27.37h-4.08V17.85h2.17c.48,0,.82.1,1.02.3.2.2.33.54.38,1.02l.3,8.88Z"/>
        <path class="cls-1" d="M137.13,37.31v.81c0,3.17.37,5.96,1.11,8.37.74,2.41,1.79,4.43,3.15,6.06,1.36,1.63,3,2.85,4.93,3.68,1.93.82,4.08,1.23,6.46,1.23,2.12,0,3.97-.23,5.52-.7,1.56-.47,2.87-.99,3.93-1.57,1.06-.58,1.9-1.1,2.53-1.57.62-.47,1.08-.7,1.36-.7.37,0,.65.14.85.42l1.11,1.36c-.68.85-1.58,1.64-2.7,2.38-1.12.74-2.37,1.37-3.74,1.89-1.37.52-2.85.94-4.42,1.25s-3.15.47-4.74.47c-2.89,0-5.52-.5-7.9-1.51-2.38-1.01-4.42-2.47-6.12-4.4-1.7-1.93-3.01-4.29-3.93-7.08-.92-2.79-1.38-5.99-1.38-9.58,0-3.03.43-5.83,1.3-8.39.86-2.56,2.11-4.77,3.74-6.63,1.63-1.86,3.63-3.31,5.99-4.36,2.36-1.05,5.05-1.57,8.05-1.57,2.38,0,4.59.41,6.63,1.23,2.04.82,3.81,2.02,5.31,3.59,1.5,1.57,2.68,3.51,3.55,5.8.86,2.3,1.3,4.93,1.3,7.9,0,.62-.09,1.05-.25,1.28s-.45.34-.85.34h-30.77ZM165.35,34.72c0-2.27-.32-4.3-.96-6.1-.64-1.8-1.54-3.32-2.7-4.57-1.16-1.25-2.54-2.2-4.14-2.87-1.6-.67-3.36-1-5.29-1-2.18,0-4.14.34-5.87,1.02-1.73.68-3.22,1.66-4.48,2.93-1.26,1.27-2.27,2.8-3.04,4.59s-1.27,3.78-1.53,5.99h28.01Z"/>
        <path class="cls-1" d="M204.92,23.5c-.14.14-.28.26-.4.36s-.3.15-.53.15c-.28,0-.67-.19-1.15-.58-.48-.38-1.13-.8-1.96-1.25-.82-.45-1.85-.87-3.08-1.25-1.23-.38-2.73-.57-4.48-.57-2.44,0-4.6.43-6.48,1.3-1.88.87-3.48,2.1-4.78,3.72-1.3,1.62-2.29,3.57-2.95,5.87-.67,2.29-1,4.87-1,7.73s.35,5.61,1.04,7.9c.69,2.29,1.68,4.23,2.95,5.8s2.82,2.77,4.63,3.59c1.81.82,3.82,1.23,6.04,1.23,2.04,0,3.75-.24,5.12-.72,1.37-.48,2.51-1.01,3.4-1.57.89-.57,1.59-1.09,2.1-1.57s.94-.72,1.27-.72.62.14.85.42l1.06,1.36c-.65.85-1.47,1.64-2.46,2.38-.99.74-2.11,1.38-3.36,1.91-1.25.54-2.6.96-4.06,1.25-1.46.3-2.98.45-4.57.45-2.69,0-5.15-.49-7.37-1.47-2.22-.98-4.14-2.39-5.74-4.25-1.6-1.86-2.85-4.13-3.74-6.82-.89-2.69-1.34-5.75-1.34-9.18,0-3.23.42-6.18,1.27-8.84.85-2.66,2.1-4.96,3.74-6.89,1.64-1.93,3.65-3.42,6.01-4.48,2.36-1.06,5.08-1.59,8.14-1.59,2.75,0,5.18.44,7.31,1.32,2.12.88,3.98,2.07,5.57,3.57l-1.06,1.44Z"/>
        <path class="cls-1" d="M234.66,55.08c-.23-.28-.45-.43-.68-.43-.2,0-.47.15-.81.45-.34.3-.78.62-1.32.98-.54.35-1.18.68-1.91.98-.74.3-1.61.45-2.63.45-.82,0-1.59-.13-2.3-.38-.71-.25-1.33-.65-1.85-1.19-.52-.54-.93-1.22-1.23-2.06-.3-.84-.45-1.84-.45-3v-30.64h13.34v-3.02h-13.34V0h-1.91c-.31,0-.55.1-.72.3-.17.2-.28.43-.34.68l-1.02,16.17v.02s-7.22,1.38-7.22,1.38v.84c0,.47.38.85.85.85h6.31l-.02,1.09v29.77c0,3.31.8,5.77,2.4,7.35,1.6,1.59,3.83,2.38,6.69,2.38,1.78,0,3.51-.36,5.16-1.09,1.66-.72,3.02-1.68,4.1-2.87l-1.1-1.78Z"/>
        <path class="cls-1" d="M129.76.23c-.89-.15-1.78-.23-2.66-.23-1.93,0-3.68.3-5.27.91-1.59.61-2.95,1.52-4.08,2.74-1.13,1.22-2.01,2.74-2.64,4.57-.62,1.83-.93,3.95-.93,6.35v4.22h-7.14v1.66c0,.62.4.98,1.19,1.06l5.95.38v38.23h4.08V21.82h13.6v-3.02h-13.73v-4.1c0-2.12.23-3.92.7-5.38.47-1.46,1.13-2.64,1.98-3.55.85-.91,1.86-1.57,3.04-1.98,1.18-.41,2.46-.62,3.85-.62.71,0,1.33.04,1.87.11.54.07.98.11,1.32.13.34.01.6-.01.79-.08.18-.07.3-.23.36-.49l.13-1.96c-.71-.28-1.51-.5-2.4-.66Z"/>
      </g>
      <path class="cls-1" d="M317.26,40.83c.35,3.95,1.48,6.84,3.37,8.66,1.89,1.82,4.36,2.74,7.42,2.74,1.55,0,2.9-.18,4.03-.55,1.13-.37,2.12-.78,2.98-1.23.86-.45,1.63-.86,2.33-1.22.69-.37,1.38-.55,2.06-.55.87,0,1.55.33,2.04.98l3.27,4.09c-1.2,1.39-2.52,2.54-3.96,3.45-1.44.91-2.94,1.63-4.5,2.17-1.55.53-3.12.9-4.7,1.1-1.58.2-3.11.31-4.58.31-2.94,0-5.69-.48-8.23-1.45-2.55-.97-4.77-2.4-6.66-4.29-1.89-1.89-3.39-4.24-4.48-7.05s-1.63-6.06-1.63-9.77c0-2.86.47-5.56,1.41-8.09s2.29-4.74,4.07-6.62c1.77-1.88,3.92-3.37,6.46-4.48,2.53-1.1,5.39-1.65,8.58-1.65,2.7,0,5.18.43,7.46,1.29,2.27.86,4.24,2.1,5.88,3.74s2.93,3.64,3.84,6.03c.91,2.38,1.37,5.1,1.37,8.15,0,.84-.04,1.54-.12,2.08-.08.54-.22.98-.41,1.31-.19.33-.45.55-.78.67-.33.12-.75.18-1.27.18h-25.25ZM335,34.13c0-1.17-.16-2.29-.47-3.35-.31-1.06-.81-2-1.49-2.82s-1.54-1.46-2.57-1.94c-1.04-.48-2.28-.71-3.72-.71-2.7,0-4.81.76-6.33,2.29-1.53,1.52-2.52,3.7-2.98,6.54h17.57Z"/>
      <path class="cls-1" d="M361.12,22.89c1.66-1.66,3.5-3,5.52-4,2.02-1.01,4.28-1.51,6.78-1.51s4.61.48,6.56,1.45c1.95.97,3.61,2.35,4.99,4.15,1.37,1.8,2.44,3.97,3.19,6.52.75,2.55,1.12,5.4,1.12,8.56,0,3.41-.43,6.5-1.29,9.3-.86,2.79-2.08,5.18-3.66,7.17-1.58,1.99-3.47,3.53-5.66,4.62-2.19,1.09-4.64,1.63-7.34,1.63-1.31,0-2.48-.13-3.51-.39-1.03-.26-1.99-.62-2.86-1.08-.87-.46-1.68-1.02-2.41-1.66-.74-.64-1.43-1.36-2.08-2.15l-.45,2.53c-.19.79-.5,1.34-.94,1.66-.44.31-1.02.47-1.76.47h-7.48V0h11.28v22.89ZM361.12,49.05c1.06,1.23,2.21,2.08,3.45,2.57,1.24.49,2.53.73,3.86.73s2.65-.25,3.78-.76c1.13-.5,2.1-1.31,2.92-2.41s1.44-2.54,1.88-4.31c.43-1.77.65-3.91.65-6.42,0-2.23-.18-4.13-.53-5.7-.35-1.57-.88-2.85-1.57-3.86s-1.55-1.74-2.55-2.21c-1.01-.46-2.18-.69-3.51-.69-1.77,0-3.3.39-4.6,1.17-1.29.78-2.55,1.91-3.78,3.41v18.47Z"/>
      <path class="cls-1" d="M405.26,40.83c.35,3.95,1.48,6.84,3.37,8.66,1.89,1.82,4.37,2.74,7.42,2.74,1.55,0,2.89-.18,4.03-.55,1.13-.37,2.12-.78,2.98-1.23.86-.45,1.63-.86,2.33-1.22.69-.37,1.38-.55,2.06-.55.87,0,1.55.33,2.04.98l3.27,4.09c-1.2,1.39-2.52,2.54-3.96,3.45-1.44.91-2.94,1.63-4.49,2.17-1.55.53-3.12.9-4.7,1.1-1.58.2-3.11.31-4.58.31-2.94,0-5.69-.48-8.23-1.45-2.55-.97-4.77-2.4-6.66-4.29-1.89-1.89-3.39-4.24-4.47-7.05-1.09-2.81-1.63-6.06-1.63-9.77,0-2.86.47-5.56,1.41-8.09.94-2.53,2.3-4.74,4.07-6.62s3.92-3.37,6.46-4.48,5.39-1.65,8.58-1.65c2.7,0,5.18.43,7.46,1.29,2.27.86,4.24,2.1,5.88,3.74,1.65,1.63,2.93,3.64,3.84,6.03.91,2.38,1.37,5.1,1.37,8.15,0,.84-.04,1.54-.12,2.08s-.22.98-.41,1.31c-.19.33-.45.55-.78.67-.33.12-.75.18-1.27.18h-25.25ZM423,34.13c0-1.17-.16-2.29-.47-3.35-.31-1.06-.81-2-1.49-2.82-.68-.82-1.54-1.46-2.57-1.94-1.04-.48-2.27-.71-3.72-.71-2.7,0-4.81.76-6.33,2.29-1.53,1.52-2.52,3.7-2.98,6.54h17.57Z"/>
      <path class="cls-1" d="M450,0v60.16h-11.28V0h11.28Z"/>
      <g>
        <rect class="cls-1" x="243.55" y="0" width="9.32" height="9.32" rx="4.66" ry="4.66"/>
        <rect class="cls-1" x="243.55" y="25.86" width="9.32" height="9.32" rx="4.66" ry="4.66"/>
        <rect class="cls-1" x="243.55" y="50.85" width="9.32" height="9.32" rx="4.66" ry="4.66"/>
      </g>
      <path class="cls-1" d="M259.52,0c0,5.15,4.17,9.32,9.32,9.32h12.77c4.33,0,7.84,3.51,7.84,7.84v.87h0c0,4.33-3.51,7.84-7.84,7.84h-12.77s0,0,0,0c-5.15,0-9.32,4.17-9.32,9.32v24.99h12.28v-24.99h2.88c1.34,0,2.59.68,3.32,1.8l13.29,20.48c1.09,1.69,2.97,2.7,4.97,2.7h10.64l-13.71-21.14c-1.22-1.88-2.93-3.36-4.94-4.29,7.6-1.76,13.27-8.57,13.27-16.71h0v-.87C301.53,7.68,293.85,0,284.38,0h-24.85"/>
    </g>
  </g>
</svg>