<?xml version="1.0" encoding="UTF-8"?>
<svg id="Layer_2" xmlns="http://www.w3.org/2000/svg" viewBox="0 0 196.71 186.8">
  <defs>
    <style>
      .cls-1 {
        fill: #E44398;
      }
    </style>
  </defs>
  <g id="Layer_1-2" data-name="Layer_1">
    <path class="cls-1" d="M14.46,0h0c7.99,0,14.46,6.47,14.46,14.46h0c0,7.99-6.47,14.47-14.46,14.47h0C6.47,28.93,0,22.46,0,14.47h0C0,6.47,6.47,0,14.46,0ZM0,94.74h0c0,7.99,6.47,14.47,14.46,14.47h0c7.99,0,14.46-6.47,14.46-14.46h0c0-7.99-6.47-14.47-14.46-14.47h0c-7.99,0-14.46,6.47-14.46,14.46ZM0,172.33h0c0,7.99,6.47,14.47,14.46,14.47h0c7.99,0,14.46-6.47,14.46-14.46h0c0-7.99-6.47-14.47-14.46-14.47h0c-7.99,0-14.46,6.47-14.46,14.46ZM49.61,0c0,15.98,12.95,28.93,28.93,28.93h39.64c13.44,0,24.33,10.89,24.33,24.33v2.7h0c0,13.44-10.89,24.33-24.33,24.33h-39.64s0,0,0,0c-15.98,0-28.93,12.95-28.93,28.93v77.59h38.13v-77.59h8.93c4.16,0,8.03,2.11,10.3,5.59l41.25,63.6c3.39,5.23,9.21,8.39,15.45,8.39h33.04l-42.56-65.63c-3.78-5.83-9.11-10.43-15.33-13.33,23.61-5.46,41.21-26.62,41.21-51.89h0v-2.7c0-29.41-23.84-53.26-53.26-53.26H49.61"/>
  </g>
</svg>
