<?xml version="1.0" encoding="UTF-8"?><svg id="Layer_2" xmlns="http://www.w3.org/2000/svg" viewBox="0 0 317.2 93.07"><defs><style>.cls-1{fill:#ff6a42;}.cls-1,.cls-2{stroke-width:0px;}.cls-2{fill:#003a42;}</style></defs><g id="Layer_1-2"><path class="cls-1" d="M37.47,40.17v-8.81c-12.32-2.37-27.08-2.2-37.47,2.77v8.83c11.74-5.37,25.99-4.85,37.47-2.79Z"/><path class="cls-1" d="M92.18,39.79v-8.83c-13.9,5.48-23.72,5.7-36.8,3.68v8.72c11.27,1.71,22.5,1.96,36.8-3.57Z"/><path class="cls-1" d="M37.47,10.29V1.48C25.15-.89,10.4-.72,0,4.25v8.83c11.74-5.37,25.99-4.85,37.47-2.79Z"/><path class="cls-1" d="M92.18,9.92V1.09c-13.9,5.48-23.72,5.7-36.8,3.68v8.72c11.27,1.71,22.5,1.96,36.8-3.57Z"/><path class="cls-1" d="M37.47,25.23v-8.81c-12.32-2.37-27.08-2.2-37.47,2.77v8.83c11.74-5.37,25.99-4.85,37.47-2.79Z"/><path class="cls-1" d="M92.18,24.86v-8.83c-13.9,5.48-23.72,5.7-36.8,3.68v8.72c11.27,1.71,22.5,1.96,36.8-3.57Z"/><path class="cls-1" d="M67.97,50.37c-4.54,0-8.73-.44-12.59-1v25.33c0,12.86-17.91,12.86-17.91,0v-28.51l-.29-.06C13.44,41.74,0,48.96,0,48.96c1.05,24.54,21.27,44.11,46.06,44.11s46.11-20.65,46.11-46.11v-1.16c-9.01,3.47-17.05,4.58-24.21,4.58Z"/><path class="cls-2" d="M140.18,75.44c-4.78,0-8.96-1-12.55-3-3.59-2-6.34-4.78-8.26-8.34-1.92-3.56-2.88-7.64-2.88-12.26V17.61h11.67v33.64c0,2.61.44,4.93,1.33,6.96.89,2.03,2.24,3.61,4.04,4.75,1.81,1.14,4.02,1.71,6.63,1.71,3.84,0,6.8-1.22,8.88-3.67,2.08-2.45,3.13-5.7,3.13-9.76V17.61h11.67v34.23c0,4.61-.97,8.7-2.92,12.26-1.95,3.56-4.7,6.34-8.26,8.34-3.56,2-7.73,3-12.51,3Z"/><path class="cls-2" d="M169.25,74.51v-42.44h10.42v4.68s2.53-2.62,4.92-3.84c2.39-1.22,5.06-1.83,8.01-1.83,3.34,0,6.3.79,8.88,2.38,2.58,1.58,4.61,3.75,6.09,6.5,1.47,2.75,2.21,5.88,2.21,9.38v25.18h-11.09v-23.26c0-2-.35-3.77-1.04-5.29-.7-1.53-1.72-2.71-3.08-3.54-1.36-.83-2.96-1.25-4.79-1.25s-3.39.42-4.84,1.25c-1.45.83-2.57,2.02-3.38,3.54-.81,1.53-1.21,3.29-1.21,5.29v23.26h-11.09Z"/><path class="cls-2" d="M235.34,75.44c-3.67,0-7.16-.93-10.46-2.79-3.31-1.86-5.95-4.49-7.92-7.88-1.97-3.39-2.96-7.23-2.96-11.51s.99-8.2,2.96-11.59c1.97-3.39,4.61-6.02,7.92-7.88,3.31-1.86,6.8-2.79,10.46-2.79,2.11,0,4.1.29,5.96.88,1.86.58,3.54,1.4,5.04,2.46.85.6,1.63,1.26,2.33,1.98v-18.7s11.09,0,11.09,0v56.83h-10.42v-5.02s-2.53,2.62-5.09,3.98c-2.56,1.36-5.53,2.04-8.92,2.04ZM237.17,65.35c2.22,0,4.25-.53,6.09-1.58,1.83-1.06,3.28-2.5,4.34-4.34,1.06-1.83,1.58-3.89,1.58-6.17s-.53-4.42-1.58-6.25c-1.06-1.83-2.5-3.28-4.34-4.34-1.83-1.06-3.86-1.58-6.09-1.58s-4.25.53-6.09,1.58c-1.83,1.06-3.28,2.5-4.34,4.34-1.06,1.83-1.58,3.92-1.58,6.25s.53,4.34,1.58,6.17c1.06,1.83,2.5,3.28,4.34,4.34,1.83,1.06,3.86,1.58,6.09,1.58Z"/><path class="cls-2" d="M285.33,75.44c-3.67,0-7.16-.93-10.46-2.79-3.31-1.86-5.96-4.49-7.96-7.88-2-3.39-3-7.23-3-11.51s1-8.2,3-11.59c2-3.39,4.66-6.02,7.96-7.88,3.31-1.86,6.8-2.79,10.46-2.79,2.28,0,4.38.32,6.3.96,1.92.64,3.63,1.52,5.13,2.63,1,.74,1.9,1.58,2.7,2.51l-.11-5.1h10.42v42.44h-10.42v-5.02s-2.53,2.62-5.09,3.98c-2.56,1.36-5.53,2.04-8.92,2.04ZM287.17,65.35c2.22,0,4.25-.53,6.09-1.58,1.83-1.06,3.28-2.5,4.34-4.34,1.06-1.83,1.58-3.89,1.58-6.17s-.53-4.42-1.58-6.25c-1.06-1.83-2.5-3.28-4.34-4.34-1.83-1.06-3.86-1.58-6.09-1.58s-4.25.53-6.09,1.58c-1.83,1.06-3.28,2.5-4.34,4.34-1.06,1.83-1.58,3.92-1.58,6.25s.53,4.34,1.58,6.17c1.06,1.83,2.5,3.28,4.34,4.34,1.83,1.06,3.86,1.58,6.09,1.58Z"/><path class="cls-2" d="M309.77,18.5v-.89h2.99v.89h-2.99ZM310.79,21.2v-3.24h.95v3.24h-.95ZM312.91,21.2l.46-3.59h.79l1.12,2.66h-.08l1.01-2.66h.53l.45,3.59h-.89l-.34-2.64h.16s-1.02,2.64-1.02,2.64h-.19l-1.13-2.65.34-.02-.34,2.67h-.86Z"/></g></svg>