<?xml version="1.0" encoding="UTF-8"?><svg id="Layer_2" xmlns="http://www.w3.org/2000/svg" xmlns:xlink="http://www.w3.org/1999/xlink" viewBox="0 0 1726.43 302.17"><defs><style>.cls-1{clip-path:url(#clippath);}.cls-2{stroke-width:0px;}.cls-2,.cls-3{fill:none;}.cls-4{clip-path:url(#clippath-1);}.cls-5{clip-path:url(#clippath-4);}.cls-6{clip-path:url(#clippath-3);}.cls-7{clip-path:url(#clippath-2);}.cls-3{stroke:#003a42;stroke-miterlimit:10;stroke-width:2px;}</style><clipPath id="clippath"><path class="cls-2" d="M380.45,90.95v90.68s52.83,24.69,84.07,26.12c50.23,3.16,73.98-10.91,73.98-10.91l4.98-142.79-160.22-3.14-2.82,40.04Z"/></clipPath><clipPath id="clippath-1"><path class="cls-2" d="M907.1,57.92v32.06s56.19,21.34,75.03,32.29c18.84,10.95,46.93,23,46.93,23l3.85-115.83-123.63-2.42-2.18,30.9Z"/></clipPath><clipPath id="clippath-2"><path class="cls-2" d="M211.64,7.09v87.12s18.14-6.2,66.14-2.98c48.6,0,90.63,18.7,90.63,18.7l-10.19-107.75-146.59,4.91Z"/></clipPath><clipPath id="clippath-3"><path class="cls-2" d="M1494.59,81.38l-2.88,42.22s-53.32,12.41-72.16,23.37c-18.84,10.95-46.92,24.38-46.92,24.38l-3.85-118.44,123.63-2.42,2.18,30.9Z"/></clipPath><clipPath id="clippath-4"><path class="cls-2" d="M391.86,34.04c73.64,15.22,133.22,64.4,205.94,82.28,47.28,12.53,98.79,2.17,143.95-19.02,72.93-31.71,148.63-71.55,229.7-60.48V10.12H443.97l-52.1,23.92Z"/></clipPath></defs><g id="Layer_1-2"><g class="cls-1"><rect class="cls-3" x="490.47" y="146.72" width="21.59" height="21.59"/><line class="cls-3" x1="501.26" y1="146.72" x2="501.26" y2="168.3"/><line class="cls-3" x1="490.47" y1="157.51" x2="512.05" y2="157.51"/><polyline class="cls-3" points="474.3 141.98 501.26 116.73 528.23 141.99"/><path class="cls-3" d="M533.9,138.83l-10.17-9.53v-18.02h-9.81v8.83l-12.66-11.85h-53.99l-32.64,30.57c-1.19,1.12-.4,3.11,1.23,3.11h58.44v69.55h53.93v-69.55h4.44c1.63,0,2.42-2,1.23-3.11Z"/><line class="cls-3" x1="490.21" y1="211.5" x2="512.31" y2="211.5"/><rect class="cls-3" x="421.1" y="141.99" width="53.19" height="69.51"/><rect class="cls-3" x="452.2" y="146.72" width="10.79" height="21.59"/><line class="cls-3" x1="452.2" y1="157.51" x2="462.99" y2="157.51"/><rect class="cls-3" x="452.2" y="177.28" width="10.79" height="21.59"/><line class="cls-3" x1="452.2" y1="188.07" x2="462.99" y2="188.07"/><rect class="cls-3" x="432.4" y="146.72" width="10.79" height="21.59"/><line class="cls-3" x1="432.4" y1="157.51" x2="443.2" y2="157.51"/><rect class="cls-3" x="432.4" y="177.28" width="10.79" height="21.59"/><line class="cls-3" x1="432.4" y1="188.07" x2="443.2" y2="188.07"/><polyline class="cls-3" points="490.47 211.5 490.47 180.91 512.05 180.91 512.05 211.5"/><line class="cls-3" x1="506.92" y1="194.15" x2="506.92" y2="198.53"/></g><g class="cls-4"><rect class="cls-3" x="987.07" y="84.41" width="19.07" height="19.07"/><line class="cls-3" x1="996.61" y1="84.41" x2="996.61" y2="103.48"/><line class="cls-3" x1="987.07" y1="93.95" x2="1006.14" y2="93.95"/><polyline class="cls-3" points="972.79 80.23 996.6 57.92 1020.43 80.23"/><path class="cls-3" d="M1025.44,77.45l-8.99-8.42v-15.92h-8.67v7.8l-11.18-10.47h-47.7l-28.83,27c-1.05.99-.35,2.75,1.09,2.75h51.62v61.44h47.64v-61.44h3.93c1.44,0,2.14-1.76,1.09-2.75Z"/><line class="cls-3" x1="986.84" y1="141.64" x2="1006.37" y2="141.64"/><rect class="cls-3" x="925.8" y="80.23" width="46.99" height="61.4"/><rect class="cls-3" x="953.27" y="84.41" width="9.53" height="19.07"/><line class="cls-3" x1="953.27" y1="93.95" x2="962.8" y2="93.95"/><rect class="cls-3" x="953.27" y="111.41" width="9.53" height="19.07"/><line class="cls-3" x1="953.27" y1="120.94" x2="962.8" y2="120.94"/><rect class="cls-3" x="935.78" y="84.41" width="9.53" height="19.07"/><line class="cls-3" x1="935.78" y1="93.95" x2="945.31" y2="93.95"/><rect class="cls-3" x="935.78" y="111.41" width="9.53" height="19.07"/><line class="cls-3" x1="935.78" y1="120.94" x2="945.31" y2="120.94"/><polyline class="cls-3" points="987.07 141.64 987.07 114.62 1006.14 114.62 1006.14 141.64"/><line class="cls-3" x1="1001.6" y1="126.31" x2="1001.6" y2="130.19"/></g><path class="cls-3" d="M385.54,108.95c0,18.25-11.06,26.75-20.64,26.75s-20.64-8.5-20.64-26.75,11.06-45.61,20.64-45.61,20.64,27.37,20.64,45.61Z"/><line class="cls-3" x1="364.9" y1="174.38" x2="364.9" y2="99.52"/><polyline class="cls-3" points="372.44 107.83 364.9 122.57 358.98 114.64"/><path class="cls-3" d="M1223.97,20.87c.3-1.13.48-2.31.48-3.53,0-7.56-6.12-13.68-13.68-13.68-1.39,0-2.73.21-4,.6-1.46-1.97-3.79-3.26-6.43-3.26-3.87,0-7.09,2.73-7.85,6.37-.06,0-.12,0-.17,0-6.83,0-12.36,5.53-12.36,12.36,0,2.17.56,4.2,1.54,5.97-3.01,2.86-4.89,6.89-4.89,11.37,0,8.68,7.03,15.71,15.71,15.71.63,0,1.24-.05,1.85-.12.37,4.09,3.77,7.31,7.96,7.31,3.23,0,6-1.92,7.27-4.67.46.03.91.07,1.38.07,10.93,0,19.79-8.86,19.79-19.79,0-5.85-2.55-11.09-6.58-14.71Z"/><line class="cls-3" x1="1202.61" y1="85.5" x2="1202.61" y2="30.45"/><polyline class="cls-3" points="1207.47 37.32 1202.61 46.91 1197.96 40.68"/><path class="cls-3" d="M813.1,129.48c.3-1.13.48-2.31.48-3.53,0-7.56-6.12-13.68-13.68-13.68-1.39,0-2.73.21-4,.6-1.46-1.97-3.79-3.26-6.43-3.26-3.87,0-7.09,2.73-7.85,6.37-.06,0-.12,0-.17,0-6.83,0-12.36,5.53-12.36,12.36,0,2.17.56,4.2,1.54,5.97-3.01,2.86-4.89,6.89-4.89,11.37,0,8.68,7.03,15.71,15.71,15.71.63,0,1.24-.05,1.85-.12.37,4.09,3.77,7.31,7.96,7.31,3.23,0,6-1.92,7.27-4.67.46.03.91.07,1.38.07,10.93,0,19.79-8.86,19.79-19.79,0-5.85-2.55-11.09-6.58-14.71Z"/><line class="cls-3" x1="791.74" y1="191.83" x2="791.74" y2="139.05"/><polyline class="cls-3" points="796.6 145.93 791.74 155.52 787.08 149.28"/><g class="cls-7"><polyline class="cls-3" points="267.94 53.13 300.33 22.79 332.74 53.14"/><path class="cls-3" d="M339.56,49.35l-12.22-11.45v-21.65h-11.79v10.61l-15.21-14.24h-43.25l-39.22,36.73c-1.43,1.34-.48,3.74,1.48,3.74h48.59v46.81h64.81v-46.81h5.34c1.96,0,2.91-2.4,1.48-3.74Z"/><rect class="cls-3" x="225.64" y="53.14" width="42.29" height="46.76"/><rect class="cls-3" x="240.31" y="63.16" width="12.97" height="25.94"/><line class="cls-3" x1="240.31" y1="76.12" x2="253.27" y2="76.12"/><polyline class="cls-3" points="287.37 99.91 287.37 63.16 313.31 63.16 313.31 99.91"/><line class="cls-3" x1="307.13" y1="79.06" x2="307.13" y2="84.33"/></g><path class="cls-3" d="M771.28,121.39c-65.78,3.8-128.18,35.69-188.67,61.99-45.16,21.19-96.67,31.55-143.95,19.02-72.72-17.88-132.3-67.06-205.94-82.28-80.21-17.72-176.18.27-230.06,66.06h0c93.18-22.32,187.53-6.86,270.84,37.49,49.51,26.33,109.63,34.32,164.44,23.33,51.93-10.3,98.77-38.47,146.63-59.88,33.81-15.85,70.07-26.8,106.9-23.44,58.54,5.68,112.56,30.87,162.37,60,115.14,67.34,291.89,74.27,402.34-1.47"/><path class="cls-3" d="M1306.82,202.18c-66.96,28.93-139.16,51.38-192.64,42.34-85.45-14.43-101.03-36.78-221.69-95.83-26.29-11.77-51.36-21.57-79.03-25.62"/><path class="cls-3" d="M1495.3,123.05c-27.76,4.03-54.65,12.97-79.15,25.64-21.75,11.58-46.9,24.63-73.72,37.33"/><path class="cls-3" d="M1726.03,183.39c-60.51-26.31-122.92-58.21-188.72-62"/><path class="cls-3" d="M915.48,252.07c236.47,84.63,397.03,49.8,539.32-28.39,51.78-25.43,103.83-54.31,162.37-60,36.83-3.36,73.09,7.59,106.9,23.44"/><path class="cls-3" d="M1094.82,81.7c114.93,46,203.38,41.9,286.45,22"/><path class="cls-3" d="M327.34,27.67c21.9-.41,43.74,1.78,64.53,6.37,73.64,15.22,133.22,64.4,205.94,82.28,47.28,12.53,98.79,2.17,143.95-19.02,72.93-31.71,148.63-71.55,229.7-60.48,28.12,3.95,55.38,12.96,80.18,25.79,3.28,1.58,6.53,3.12,9.76,4.62"/><path class="cls-3" d="M134.5,116.5c27.72-31.7,63.85-51.91,86.32-63.4"/><path class="cls-3" d="M344.25,100.54c-8.02-1.89-16.72-3.56-26.21-4.89-57.81-8.79-106.41-10.85-157.85,18.38"/><path class="cls-3" d="M421.73,131.98c-9.67-4.8-21.13-11.41-36.19-17.87"/><path class="cls-3" d="M1379.77,104.05c-37.65,16.71-87.88,37.89-126.96,51.08-39.44,13.31-77,17.72-118.57,15.21s-81.32-12.86-118.16-31.18c-1.04-.52-2.08-1.04-3.12-1.57-51.78-25.43-103.83-54.31-162.37-60-36.83-3.36-73.09,7.59-106.9,23.44-47.85,21.41-94.7,49.59-146.63,59.88-22.46,4.5-45.81,5.82-68.96,3.99"/><path class="cls-3" d="M1711.55,160.92c-51.93-10.3-98.77-38.47-146.63-59.88-33.81-15.85-70.07-26.8-106.9-23.44-.47.04-.94.09-1.41.14"/><path class="cls-3" d="M1151.86,101.79c53.94-12.06,99.26-42.6,151.6-57.74,93.48-27.04,179.53,16.77,263.43,53.25"/><g class="cls-6"><rect class="cls-3" x="1395.55" y="107.87" width="19.07" height="19.07"/><line class="cls-3" x1="1405.08" y1="107.87" x2="1405.08" y2="126.94"/><line class="cls-3" x1="1414.62" y1="117.41" x2="1395.55" y2="117.41"/><polyline class="cls-3" points="1428.9 103.69 1405.09 81.38 1381.26 103.69"/><path class="cls-3" d="M1376.25,100.91l8.99-8.42v-15.92h8.67v7.8s11.18-10.47,11.18-10.47h47.7s28.83,27,28.83,27c1.05.99.35,2.75-1.09,2.75h-51.62s0,61.44,0,61.44h-14.06s-19.53,3.17-19.53,3.17h-14.06v-64.61s-3.93,0-3.93,0c-1.44,0-2.14-1.76-1.09-2.75Z"/><line class="cls-3" x1="1414.85" y1="165.1" x2="1395.32" y2="165.1"/><rect class="cls-3" x="1428.9" y="103.69" width="46.99" height="61.4"/><rect class="cls-3" x="1438.89" y="107.87" width="9.53" height="19.07"/><line class="cls-3" x1="1448.42" y1="117.41" x2="1438.89" y2="117.41"/><rect class="cls-3" x="1438.89" y="134.87" width="9.53" height="19.07"/><line class="cls-3" x1="1448.42" y1="144.41" x2="1438.89" y2="144.41"/><rect class="cls-3" x="1456.38" y="107.87" width="9.53" height="19.07"/><line class="cls-3" x1="1465.91" y1="117.41" x2="1456.38" y2="117.41"/><rect class="cls-3" x="1456.38" y="134.87" width="9.53" height="19.07"/><line class="cls-3" x1="1465.91" y1="144.41" x2="1456.38" y2="144.41"/><polyline class="cls-3" points="1414.62 165.1 1414.62 138.08 1395.55 138.08 1395.55 165.1"/><line class="cls-3" x1="1400.09" y1="149.77" x2="1400.09" y2="153.65"/></g><path class="cls-3" d="M1306.1,210.89c0,18.25,11.06,26.75,20.64,26.75s20.64-8.5,20.64-26.75c0-18.25-11.06-45.61-20.64-45.61-9.58,0-20.64,27.37-20.64,45.61Z"/><line class="cls-3" x1="1326.74" y1="277.93" x2="1326.74" y2="201.46"/><polyline class="cls-3" points="1319.21 209.77 1326.74 224.51 1332.66 216.58"/><path class="cls-3" d="M1495.54,129.48c-.3-1.13-.48-2.31-.48-3.53,0-7.56,6.12-13.68,13.68-13.68,1.39,0,2.73.21,4,.6,1.46-1.97,3.79-3.26,6.43-3.26,3.87,0,7.09,2.73,7.85,6.37.06,0,.12,0,.17,0,6.83,0,12.36,5.53,12.36,12.36,0,2.17-.56,4.2-1.54,5.97,3.01,2.86,4.89,6.89,4.89,11.37,0,8.68-7.03,15.71-15.71,15.71-.63,0-1.24-.05-1.85-.12-.37,4.09-3.77,7.31-7.96,7.31-3.23,0-6-1.92-7.27-4.67-.46.03-.91.07-1.38.07-10.93,0-19.79-8.86-19.79-19.79,0-5.85,2.55-11.09,6.58-14.71Z"/><line class="cls-3" x1="1516.9" y1="194.11" x2="1516.9" y2="139.05"/><polyline class="cls-3" points="1512.04 145.93 1516.9 155.52 1521.55 149.28"/><path class="cls-3" d="M1096.37,95.98c0,18.25-11.06,26.75-20.64,26.75s-20.64-8.5-20.64-26.75,11.06-45.61,20.64-45.61,20.64,27.37,20.64,45.61Z"/><line class="cls-3" x1="1075.73" y1="161.09" x2="1075.73" y2="86.55"/><polyline class="cls-3" points="1083.26 94.87 1075.73 109.61 1069.81 101.67"/><line class="cls-3" x1="429.69" y1="44.92" x2="873.86" y2="44.92"/><g class="cls-5"><rect class="cls-3" x="481.75" y="60.61" width="26.62" height="78.44" rx="13.31" ry="13.31"/><rect class="cls-3" x="523.39" y="60.61" width="26.62" height="78.44" rx="13.31" ry="13.31"/><rect class="cls-3" x="565.02" y="60.61" width="26.62" height="78.44" rx="13.31" ry="13.31"/><rect class="cls-3" x="606.66" y="60.61" width="26.62" height="78.44" rx="13.31" ry="13.31"/><rect class="cls-3" x="648.29" y="60.61" width="26.62" height="78.44" rx="13.31" ry="13.31"/><rect class="cls-3" x="689.93" y="60.61" width="26.62" height="78.44" rx="13.31" ry="13.31"/><rect class="cls-3" x="731.57" y="60.61" width="26.62" height="78.44" rx="13.31" ry="13.31"/><rect class="cls-3" x="773.2" y="60.61" width="26.62" height="78.44" rx="13.31" ry="13.31"/></g></g></svg>